%TF.GenerationSoftware,KiCad,Pcbnew,8.0.0*%
%TF.CreationDate,2024-04-03T23:18:40+02:00*%
%TF.ProjectId,PowerSubsystem,506f7765-7253-4756-9273-797374656d2e,rev?*%
%TF.SameCoordinates,Original*%
%TF.FileFunction,Legend,Top*%
%TF.FilePolarity,Positive*%
%FSLAX46Y46*%
G04 Gerber Fmt 4.6, Leading zero omitted, Abs format (unit mm)*
G04 Created by KiCad (PCBNEW 8.0.0) date 2024-04-03 23:18:40*
%MOMM*%
%LPD*%
G01*
G04 APERTURE LIST*
G04 Aperture macros list*
%AMRoundRect*
0 Rectangle with rounded corners*
0 $1 Rounding radius*
0 $2 $3 $4 $5 $6 $7 $8 $9 X,Y pos of 4 corners*
0 Add a 4 corners polygon primitive as box body*
4,1,4,$2,$3,$4,$5,$6,$7,$8,$9,$2,$3,0*
0 Add four circle primitives for the rounded corners*
1,1,$1+$1,$2,$3*
1,1,$1+$1,$4,$5*
1,1,$1+$1,$6,$7*
1,1,$1+$1,$8,$9*
0 Add four rect primitives between the rounded corners*
20,1,$1+$1,$2,$3,$4,$5,0*
20,1,$1+$1,$4,$5,$6,$7,0*
20,1,$1+$1,$6,$7,$8,$9,0*
20,1,$1+$1,$8,$9,$2,$3,0*%
G04 Aperture macros list end*
%ADD10C,0.100000*%
%ADD11C,0.050000*%
%ADD12C,0.150000*%
%ADD13C,0.075000*%
%ADD14C,0.254000*%
%ADD15C,0.152400*%
%ADD16C,0.508000*%
%ADD17C,0.120000*%
%ADD18C,0.200000*%
%ADD19R,0.990600X0.762000*%
%ADD20R,1.000000X1.000000*%
%ADD21R,0.900000X0.950000*%
%ADD22RoundRect,0.250000X-0.350000X-0.625000X0.350000X-0.625000X0.350000X0.625000X-0.350000X0.625000X0*%
%ADD23O,1.200000X1.750000*%
%ADD24R,0.750000X0.600000*%
%ADD25R,0.482600X1.117600*%
%ADD26R,0.605600X0.500000*%
%ADD27R,1.475000X0.450000*%
%ADD28R,1.700000X1.700000*%
%ADD29O,1.700000X1.700000*%
%ADD30R,0.610000X0.630000*%
%ADD31R,1.460500X0.558800*%
%ADD32R,2.514600X3.403600*%
%ADD33R,0.620000X0.640000*%
%ADD34R,0.600000X0.620000*%
%ADD35C,0.600000*%
G04 APERTURE END LIST*
D10*
X113508646Y-83913609D02*
X113603884Y-83913609D01*
X113603884Y-83913609D02*
X113651503Y-83889800D01*
X113651503Y-83889800D02*
X113675312Y-83865990D01*
X113675312Y-83865990D02*
X113722931Y-83794561D01*
X113722931Y-83794561D02*
X113746741Y-83699323D01*
X113746741Y-83699323D02*
X113746741Y-83508847D01*
X113746741Y-83508847D02*
X113722931Y-83461228D01*
X113722931Y-83461228D02*
X113699122Y-83437419D01*
X113699122Y-83437419D02*
X113651503Y-83413609D01*
X113651503Y-83413609D02*
X113556265Y-83413609D01*
X113556265Y-83413609D02*
X113508646Y-83437419D01*
X113508646Y-83437419D02*
X113484836Y-83461228D01*
X113484836Y-83461228D02*
X113461027Y-83508847D01*
X113461027Y-83508847D02*
X113461027Y-83627895D01*
X113461027Y-83627895D02*
X113484836Y-83675514D01*
X113484836Y-83675514D02*
X113508646Y-83699323D01*
X113508646Y-83699323D02*
X113556265Y-83723133D01*
X113556265Y-83723133D02*
X113651503Y-83723133D01*
X113651503Y-83723133D02*
X113699122Y-83699323D01*
X113699122Y-83699323D02*
X113722931Y-83675514D01*
X113722931Y-83675514D02*
X113746741Y-83627895D01*
X133686741Y-71367419D02*
X133639122Y-71343609D01*
X133639122Y-71343609D02*
X133567693Y-71343609D01*
X133567693Y-71343609D02*
X133496265Y-71367419D01*
X133496265Y-71367419D02*
X133448646Y-71415038D01*
X133448646Y-71415038D02*
X133424836Y-71462657D01*
X133424836Y-71462657D02*
X133401027Y-71557895D01*
X133401027Y-71557895D02*
X133401027Y-71629323D01*
X133401027Y-71629323D02*
X133424836Y-71724561D01*
X133424836Y-71724561D02*
X133448646Y-71772180D01*
X133448646Y-71772180D02*
X133496265Y-71819800D01*
X133496265Y-71819800D02*
X133567693Y-71843609D01*
X133567693Y-71843609D02*
X133615312Y-71843609D01*
X133615312Y-71843609D02*
X133686741Y-71819800D01*
X133686741Y-71819800D02*
X133710550Y-71795990D01*
X133710550Y-71795990D02*
X133710550Y-71629323D01*
X133710550Y-71629323D02*
X133615312Y-71629323D01*
X133924836Y-71843609D02*
X133924836Y-71343609D01*
X133924836Y-71343609D02*
X134210550Y-71843609D01*
X134210550Y-71843609D02*
X134210550Y-71343609D01*
X134448646Y-71843609D02*
X134448646Y-71343609D01*
X134448646Y-71343609D02*
X134567694Y-71343609D01*
X134567694Y-71343609D02*
X134639122Y-71367419D01*
X134639122Y-71367419D02*
X134686741Y-71415038D01*
X134686741Y-71415038D02*
X134710551Y-71462657D01*
X134710551Y-71462657D02*
X134734360Y-71557895D01*
X134734360Y-71557895D02*
X134734360Y-71629323D01*
X134734360Y-71629323D02*
X134710551Y-71724561D01*
X134710551Y-71724561D02*
X134686741Y-71772180D01*
X134686741Y-71772180D02*
X134639122Y-71819800D01*
X134639122Y-71819800D02*
X134567694Y-71843609D01*
X134567694Y-71843609D02*
X134448646Y-71843609D01*
X113732931Y-78233609D02*
X113494836Y-78233609D01*
X113494836Y-78233609D02*
X113471027Y-78471704D01*
X113471027Y-78471704D02*
X113494836Y-78447895D01*
X113494836Y-78447895D02*
X113542455Y-78424085D01*
X113542455Y-78424085D02*
X113661503Y-78424085D01*
X113661503Y-78424085D02*
X113709122Y-78447895D01*
X113709122Y-78447895D02*
X113732931Y-78471704D01*
X113732931Y-78471704D02*
X113756741Y-78519323D01*
X113756741Y-78519323D02*
X113756741Y-78638371D01*
X113756741Y-78638371D02*
X113732931Y-78685990D01*
X113732931Y-78685990D02*
X113709122Y-78709800D01*
X113709122Y-78709800D02*
X113661503Y-78733609D01*
X113661503Y-78733609D02*
X113542455Y-78733609D01*
X113542455Y-78733609D02*
X113494836Y-78709800D01*
X113494836Y-78709800D02*
X113471027Y-78685990D01*
X113316741Y-88903609D02*
X113031027Y-88903609D01*
X113173884Y-88903609D02*
X113173884Y-88403609D01*
X113173884Y-88403609D02*
X113126265Y-88475038D01*
X113126265Y-88475038D02*
X113078646Y-88522657D01*
X113078646Y-88522657D02*
X113031027Y-88546466D01*
X113483407Y-88403609D02*
X113792931Y-88403609D01*
X113792931Y-88403609D02*
X113626264Y-88594085D01*
X113626264Y-88594085D02*
X113697693Y-88594085D01*
X113697693Y-88594085D02*
X113745312Y-88617895D01*
X113745312Y-88617895D02*
X113769121Y-88641704D01*
X113769121Y-88641704D02*
X113792931Y-88689323D01*
X113792931Y-88689323D02*
X113792931Y-88808371D01*
X113792931Y-88808371D02*
X113769121Y-88855990D01*
X113769121Y-88855990D02*
X113745312Y-88879800D01*
X113745312Y-88879800D02*
X113697693Y-88903609D01*
X113697693Y-88903609D02*
X113554836Y-88903609D01*
X113554836Y-88903609D02*
X113507217Y-88879800D01*
X113507217Y-88879800D02*
X113483407Y-88855990D01*
X113427217Y-80653609D02*
X113760550Y-80653609D01*
X113760550Y-80653609D02*
X113546265Y-81153609D01*
D11*
X131190989Y-95921971D02*
X131200513Y-95912447D01*
X131200513Y-95912447D02*
X131219560Y-95902923D01*
X131219560Y-95902923D02*
X131267179Y-95902923D01*
X131267179Y-95902923D02*
X131286227Y-95912447D01*
X131286227Y-95912447D02*
X131295751Y-95921971D01*
X131295751Y-95921971D02*
X131305274Y-95941019D01*
X131305274Y-95941019D02*
X131305274Y-95960066D01*
X131305274Y-95960066D02*
X131295751Y-95988638D01*
X131295751Y-95988638D02*
X131181465Y-96102923D01*
X131181465Y-96102923D02*
X131305274Y-96102923D01*
D10*
X130644836Y-71543133D02*
X131025789Y-71543133D01*
X130835312Y-71733609D02*
X130835312Y-71352657D01*
X131430551Y-71471704D02*
X131501979Y-71495514D01*
X131501979Y-71495514D02*
X131525789Y-71519323D01*
X131525789Y-71519323D02*
X131549598Y-71566942D01*
X131549598Y-71566942D02*
X131549598Y-71638371D01*
X131549598Y-71638371D02*
X131525789Y-71685990D01*
X131525789Y-71685990D02*
X131501979Y-71709800D01*
X131501979Y-71709800D02*
X131454360Y-71733609D01*
X131454360Y-71733609D02*
X131263884Y-71733609D01*
X131263884Y-71733609D02*
X131263884Y-71233609D01*
X131263884Y-71233609D02*
X131430551Y-71233609D01*
X131430551Y-71233609D02*
X131478170Y-71257419D01*
X131478170Y-71257419D02*
X131501979Y-71281228D01*
X131501979Y-71281228D02*
X131525789Y-71328847D01*
X131525789Y-71328847D02*
X131525789Y-71376466D01*
X131525789Y-71376466D02*
X131501979Y-71424085D01*
X131501979Y-71424085D02*
X131478170Y-71447895D01*
X131478170Y-71447895D02*
X131430551Y-71471704D01*
X131430551Y-71471704D02*
X131263884Y-71471704D01*
X131740075Y-71590752D02*
X131978170Y-71590752D01*
X131692456Y-71733609D02*
X131859122Y-71233609D01*
X131859122Y-71233609D02*
X132025789Y-71733609D01*
X132121027Y-71233609D02*
X132406741Y-71233609D01*
X132263884Y-71733609D02*
X132263884Y-71233609D01*
X132501979Y-71233609D02*
X132787693Y-71233609D01*
X132644836Y-71733609D02*
X132644836Y-71233609D01*
X113427217Y-75503609D02*
X113736741Y-75503609D01*
X113736741Y-75503609D02*
X113570074Y-75694085D01*
X113570074Y-75694085D02*
X113641503Y-75694085D01*
X113641503Y-75694085D02*
X113689122Y-75717895D01*
X113689122Y-75717895D02*
X113712931Y-75741704D01*
X113712931Y-75741704D02*
X113736741Y-75789323D01*
X113736741Y-75789323D02*
X113736741Y-75908371D01*
X113736741Y-75908371D02*
X113712931Y-75955990D01*
X113712931Y-75955990D02*
X113689122Y-75979800D01*
X113689122Y-75979800D02*
X113641503Y-76003609D01*
X113641503Y-76003609D02*
X113498646Y-76003609D01*
X113498646Y-76003609D02*
X113451027Y-75979800D01*
X113451027Y-75979800D02*
X113427217Y-75955990D01*
D11*
X129155274Y-95932447D02*
X129136227Y-95922923D01*
X129136227Y-95922923D02*
X129107655Y-95922923D01*
X129107655Y-95922923D02*
X129079084Y-95932447D01*
X129079084Y-95932447D02*
X129060036Y-95951495D01*
X129060036Y-95951495D02*
X129050513Y-95970542D01*
X129050513Y-95970542D02*
X129040989Y-96008638D01*
X129040989Y-96008638D02*
X129040989Y-96037209D01*
X129040989Y-96037209D02*
X129050513Y-96075304D01*
X129050513Y-96075304D02*
X129060036Y-96094352D01*
X129060036Y-96094352D02*
X129079084Y-96113400D01*
X129079084Y-96113400D02*
X129107655Y-96122923D01*
X129107655Y-96122923D02*
X129126703Y-96122923D01*
X129126703Y-96122923D02*
X129155274Y-96113400D01*
X129155274Y-96113400D02*
X129164798Y-96103876D01*
X129164798Y-96103876D02*
X129164798Y-96037209D01*
X129164798Y-96037209D02*
X129126703Y-96037209D01*
X129250513Y-96122923D02*
X129250513Y-95922923D01*
X129250513Y-95922923D02*
X129364798Y-96122923D01*
X129364798Y-96122923D02*
X129364798Y-95922923D01*
X129460037Y-96122923D02*
X129460037Y-95922923D01*
X129460037Y-95922923D02*
X129507656Y-95922923D01*
X129507656Y-95922923D02*
X129536227Y-95932447D01*
X129536227Y-95932447D02*
X129555275Y-95951495D01*
X129555275Y-95951495D02*
X129564798Y-95970542D01*
X129564798Y-95970542D02*
X129574322Y-96008638D01*
X129574322Y-96008638D02*
X129574322Y-96037209D01*
X129574322Y-96037209D02*
X129564798Y-96075304D01*
X129564798Y-96075304D02*
X129555275Y-96094352D01*
X129555275Y-96094352D02*
X129536227Y-96113400D01*
X129536227Y-96113400D02*
X129507656Y-96122923D01*
X129507656Y-96122923D02*
X129460037Y-96122923D01*
D10*
X128329122Y-71380276D02*
X128329122Y-71713609D01*
X128210074Y-71189800D02*
X128091027Y-71546942D01*
X128091027Y-71546942D02*
X128400550Y-71546942D01*
X113266741Y-91453609D02*
X112981027Y-91453609D01*
X113123884Y-91453609D02*
X113123884Y-90953609D01*
X113123884Y-90953609D02*
X113076265Y-91025038D01*
X113076265Y-91025038D02*
X113028646Y-91072657D01*
X113028646Y-91072657D02*
X112981027Y-91096466D01*
X113719121Y-90953609D02*
X113481026Y-90953609D01*
X113481026Y-90953609D02*
X113457217Y-91191704D01*
X113457217Y-91191704D02*
X113481026Y-91167895D01*
X113481026Y-91167895D02*
X113528645Y-91144085D01*
X113528645Y-91144085D02*
X113647693Y-91144085D01*
X113647693Y-91144085D02*
X113695312Y-91167895D01*
X113695312Y-91167895D02*
X113719121Y-91191704D01*
X113719121Y-91191704D02*
X113742931Y-91239323D01*
X113742931Y-91239323D02*
X113742931Y-91358371D01*
X113742931Y-91358371D02*
X113719121Y-91405990D01*
X113719121Y-91405990D02*
X113695312Y-91429800D01*
X113695312Y-91429800D02*
X113647693Y-91453609D01*
X113647693Y-91453609D02*
X113528645Y-91453609D01*
X113528645Y-91453609D02*
X113481026Y-91429800D01*
X113481026Y-91429800D02*
X113457217Y-91405990D01*
X113786741Y-73643609D02*
X113501027Y-73643609D01*
X113643884Y-73643609D02*
X113643884Y-73143609D01*
X113643884Y-73143609D02*
X113596265Y-73215038D01*
X113596265Y-73215038D02*
X113548646Y-73262657D01*
X113548646Y-73262657D02*
X113501027Y-73286466D01*
X120116741Y-67863609D02*
X119831027Y-67863609D01*
X119973884Y-67863609D02*
X119973884Y-67363609D01*
X119973884Y-67363609D02*
X119926265Y-67435038D01*
X119926265Y-67435038D02*
X119878646Y-67482657D01*
X119878646Y-67482657D02*
X119831027Y-67506466D01*
X128401027Y-67431228D02*
X128424836Y-67407419D01*
X128424836Y-67407419D02*
X128472455Y-67383609D01*
X128472455Y-67383609D02*
X128591503Y-67383609D01*
X128591503Y-67383609D02*
X128639122Y-67407419D01*
X128639122Y-67407419D02*
X128662931Y-67431228D01*
X128662931Y-67431228D02*
X128686741Y-67478847D01*
X128686741Y-67478847D02*
X128686741Y-67526466D01*
X128686741Y-67526466D02*
X128662931Y-67597895D01*
X128662931Y-67597895D02*
X128377217Y-67883609D01*
X128377217Y-67883609D02*
X128686741Y-67883609D01*
X113346741Y-86553609D02*
X113061027Y-86553609D01*
X113203884Y-86553609D02*
X113203884Y-86053609D01*
X113203884Y-86053609D02*
X113156265Y-86125038D01*
X113156265Y-86125038D02*
X113108646Y-86172657D01*
X113108646Y-86172657D02*
X113061027Y-86196466D01*
X113822931Y-86553609D02*
X113537217Y-86553609D01*
X113680074Y-86553609D02*
X113680074Y-86053609D01*
X113680074Y-86053609D02*
X113632455Y-86125038D01*
X113632455Y-86125038D02*
X113584836Y-86172657D01*
X113584836Y-86172657D02*
X113537217Y-86196466D01*
D11*
X129401465Y-92012923D02*
X129525274Y-92012923D01*
X129525274Y-92012923D02*
X129458608Y-92089114D01*
X129458608Y-92089114D02*
X129487179Y-92089114D01*
X129487179Y-92089114D02*
X129506227Y-92098638D01*
X129506227Y-92098638D02*
X129515751Y-92108161D01*
X129515751Y-92108161D02*
X129525274Y-92127209D01*
X129525274Y-92127209D02*
X129525274Y-92174828D01*
X129525274Y-92174828D02*
X129515751Y-92193876D01*
X129515751Y-92193876D02*
X129506227Y-92203400D01*
X129506227Y-92203400D02*
X129487179Y-92212923D01*
X129487179Y-92212923D02*
X129430036Y-92212923D01*
X129430036Y-92212923D02*
X129410989Y-92203400D01*
X129410989Y-92203400D02*
X129401465Y-92193876D01*
X129610989Y-92193876D02*
X129620512Y-92203400D01*
X129620512Y-92203400D02*
X129610989Y-92212923D01*
X129610989Y-92212923D02*
X129601465Y-92203400D01*
X129601465Y-92203400D02*
X129610989Y-92193876D01*
X129610989Y-92193876D02*
X129610989Y-92212923D01*
X129687179Y-92012923D02*
X129810988Y-92012923D01*
X129810988Y-92012923D02*
X129744322Y-92089114D01*
X129744322Y-92089114D02*
X129772893Y-92089114D01*
X129772893Y-92089114D02*
X129791941Y-92098638D01*
X129791941Y-92098638D02*
X129801465Y-92108161D01*
X129801465Y-92108161D02*
X129810988Y-92127209D01*
X129810988Y-92127209D02*
X129810988Y-92174828D01*
X129810988Y-92174828D02*
X129801465Y-92193876D01*
X129801465Y-92193876D02*
X129791941Y-92203400D01*
X129791941Y-92203400D02*
X129772893Y-92212923D01*
X129772893Y-92212923D02*
X129715750Y-92212923D01*
X129715750Y-92212923D02*
X129696703Y-92203400D01*
X129696703Y-92203400D02*
X129687179Y-92193876D01*
X129868131Y-92012923D02*
X129934798Y-92212923D01*
X129934798Y-92212923D02*
X130001464Y-92012923D01*
D12*
X122773067Y-69980500D02*
X122915924Y-70028119D01*
X122915924Y-70028119D02*
X123154019Y-70028119D01*
X123154019Y-70028119D02*
X123249257Y-69980500D01*
X123249257Y-69980500D02*
X123296876Y-69932880D01*
X123296876Y-69932880D02*
X123344495Y-69837642D01*
X123344495Y-69837642D02*
X123344495Y-69742404D01*
X123344495Y-69742404D02*
X123296876Y-69647166D01*
X123296876Y-69647166D02*
X123249257Y-69599547D01*
X123249257Y-69599547D02*
X123154019Y-69551928D01*
X123154019Y-69551928D02*
X122963543Y-69504309D01*
X122963543Y-69504309D02*
X122868305Y-69456690D01*
X122868305Y-69456690D02*
X122820686Y-69409071D01*
X122820686Y-69409071D02*
X122773067Y-69313833D01*
X122773067Y-69313833D02*
X122773067Y-69218595D01*
X122773067Y-69218595D02*
X122820686Y-69123357D01*
X122820686Y-69123357D02*
X122868305Y-69075738D01*
X122868305Y-69075738D02*
X122963543Y-69028119D01*
X122963543Y-69028119D02*
X123201638Y-69028119D01*
X123201638Y-69028119D02*
X123344495Y-69075738D01*
X123677829Y-69028119D02*
X123915924Y-70028119D01*
X123915924Y-70028119D02*
X124106400Y-69313833D01*
X124106400Y-69313833D02*
X124296876Y-70028119D01*
X124296876Y-70028119D02*
X124534972Y-69028119D01*
X125439733Y-70028119D02*
X124868305Y-70028119D01*
X125154019Y-70028119D02*
X125154019Y-69028119D01*
X125154019Y-69028119D02*
X125058781Y-69170976D01*
X125058781Y-69170976D02*
X124963543Y-69266214D01*
X124963543Y-69266214D02*
X124868305Y-69313833D01*
D13*
X126695715Y-75456885D02*
X126867144Y-75456885D01*
X126781429Y-75756885D02*
X126781429Y-75456885D01*
X126967143Y-75756885D02*
X126967143Y-75456885D01*
X126967143Y-75456885D02*
X127081429Y-75456885D01*
X127081429Y-75456885D02*
X127110000Y-75471171D01*
X127110000Y-75471171D02*
X127124286Y-75485457D01*
X127124286Y-75485457D02*
X127138572Y-75514028D01*
X127138572Y-75514028D02*
X127138572Y-75556885D01*
X127138572Y-75556885D02*
X127124286Y-75585457D01*
X127124286Y-75585457D02*
X127110000Y-75599742D01*
X127110000Y-75599742D02*
X127081429Y-75614028D01*
X127081429Y-75614028D02*
X126967143Y-75614028D01*
X127195715Y-75785457D02*
X127424286Y-75785457D01*
X127467143Y-75456885D02*
X127652857Y-75456885D01*
X127652857Y-75456885D02*
X127552857Y-75571171D01*
X127552857Y-75571171D02*
X127595714Y-75571171D01*
X127595714Y-75571171D02*
X127624286Y-75585457D01*
X127624286Y-75585457D02*
X127638571Y-75599742D01*
X127638571Y-75599742D02*
X127652857Y-75628314D01*
X127652857Y-75628314D02*
X127652857Y-75699742D01*
X127652857Y-75699742D02*
X127638571Y-75728314D01*
X127638571Y-75728314D02*
X127624286Y-75742600D01*
X127624286Y-75742600D02*
X127595714Y-75756885D01*
X127595714Y-75756885D02*
X127510000Y-75756885D01*
X127510000Y-75756885D02*
X127481428Y-75742600D01*
X127481428Y-75742600D02*
X127467143Y-75728314D01*
X127738571Y-75456885D02*
X127838571Y-75756885D01*
X127838571Y-75756885D02*
X127938571Y-75456885D01*
X128010000Y-75456885D02*
X128195714Y-75456885D01*
X128195714Y-75456885D02*
X128095714Y-75571171D01*
X128095714Y-75571171D02*
X128138571Y-75571171D01*
X128138571Y-75571171D02*
X128167143Y-75585457D01*
X128167143Y-75585457D02*
X128181428Y-75599742D01*
X128181428Y-75599742D02*
X128195714Y-75628314D01*
X128195714Y-75628314D02*
X128195714Y-75699742D01*
X128195714Y-75699742D02*
X128181428Y-75728314D01*
X128181428Y-75728314D02*
X128167143Y-75742600D01*
X128167143Y-75742600D02*
X128138571Y-75756885D01*
X128138571Y-75756885D02*
X128052857Y-75756885D01*
X128052857Y-75756885D02*
X128024285Y-75742600D01*
X128024285Y-75742600D02*
X128010000Y-75728314D01*
D14*
X134898333Y-81254318D02*
X134474999Y-80649556D01*
X134172618Y-81254318D02*
X134172618Y-79984318D01*
X134172618Y-79984318D02*
X134656428Y-79984318D01*
X134656428Y-79984318D02*
X134777380Y-80044794D01*
X134777380Y-80044794D02*
X134837857Y-80105270D01*
X134837857Y-80105270D02*
X134898333Y-80226222D01*
X134898333Y-80226222D02*
X134898333Y-80407651D01*
X134898333Y-80407651D02*
X134837857Y-80528603D01*
X134837857Y-80528603D02*
X134777380Y-80589080D01*
X134777380Y-80589080D02*
X134656428Y-80649556D01*
X134656428Y-80649556D02*
X134172618Y-80649556D01*
X136107857Y-81254318D02*
X135382142Y-81254318D01*
X135744999Y-81254318D02*
X135744999Y-79984318D01*
X135744999Y-79984318D02*
X135624047Y-80165746D01*
X135624047Y-80165746D02*
X135503095Y-80286699D01*
X135503095Y-80286699D02*
X135382142Y-80347175D01*
D12*
X132426666Y-70934819D02*
X132426666Y-71649104D01*
X132426666Y-71649104D02*
X132379047Y-71791961D01*
X132379047Y-71791961D02*
X132283809Y-71887200D01*
X132283809Y-71887200D02*
X132140952Y-71934819D01*
X132140952Y-71934819D02*
X132045714Y-71934819D01*
X132855238Y-71030057D02*
X132902857Y-70982438D01*
X132902857Y-70982438D02*
X132998095Y-70934819D01*
X132998095Y-70934819D02*
X133236190Y-70934819D01*
X133236190Y-70934819D02*
X133331428Y-70982438D01*
X133331428Y-70982438D02*
X133379047Y-71030057D01*
X133379047Y-71030057D02*
X133426666Y-71125295D01*
X133426666Y-71125295D02*
X133426666Y-71220533D01*
X133426666Y-71220533D02*
X133379047Y-71363390D01*
X133379047Y-71363390D02*
X132807619Y-71934819D01*
X132807619Y-71934819D02*
X133426666Y-71934819D01*
D13*
X122831429Y-72406885D02*
X123002858Y-72406885D01*
X122917143Y-72706885D02*
X122917143Y-72406885D01*
X123102857Y-72706885D02*
X123102857Y-72406885D01*
X123102857Y-72406885D02*
X123217143Y-72406885D01*
X123217143Y-72406885D02*
X123245714Y-72421171D01*
X123245714Y-72421171D02*
X123260000Y-72435457D01*
X123260000Y-72435457D02*
X123274286Y-72464028D01*
X123274286Y-72464028D02*
X123274286Y-72506885D01*
X123274286Y-72506885D02*
X123260000Y-72535457D01*
X123260000Y-72535457D02*
X123245714Y-72549742D01*
X123245714Y-72549742D02*
X123217143Y-72564028D01*
X123217143Y-72564028D02*
X123102857Y-72564028D01*
X123560000Y-72706885D02*
X123388571Y-72706885D01*
X123474286Y-72706885D02*
X123474286Y-72406885D01*
X123474286Y-72406885D02*
X123445714Y-72449742D01*
X123445714Y-72449742D02*
X123417143Y-72478314D01*
X123417143Y-72478314D02*
X123388571Y-72492600D01*
X123617143Y-72735457D02*
X123845714Y-72735457D01*
X123917142Y-72706885D02*
X123917142Y-72506885D01*
X123917142Y-72535457D02*
X123931428Y-72521171D01*
X123931428Y-72521171D02*
X123959999Y-72506885D01*
X123959999Y-72506885D02*
X124002856Y-72506885D01*
X124002856Y-72506885D02*
X124031428Y-72521171D01*
X124031428Y-72521171D02*
X124045714Y-72549742D01*
X124045714Y-72549742D02*
X124045714Y-72706885D01*
X124045714Y-72549742D02*
X124059999Y-72521171D01*
X124059999Y-72521171D02*
X124088571Y-72506885D01*
X124088571Y-72506885D02*
X124131428Y-72506885D01*
X124131428Y-72506885D02*
X124159999Y-72521171D01*
X124159999Y-72521171D02*
X124174285Y-72549742D01*
X124174285Y-72549742D02*
X124174285Y-72706885D01*
X124359999Y-72706885D02*
X124331428Y-72692600D01*
X124331428Y-72692600D02*
X124317142Y-72678314D01*
X124317142Y-72678314D02*
X124302856Y-72649742D01*
X124302856Y-72649742D02*
X124302856Y-72564028D01*
X124302856Y-72564028D02*
X124317142Y-72535457D01*
X124317142Y-72535457D02*
X124331428Y-72521171D01*
X124331428Y-72521171D02*
X124359999Y-72506885D01*
X124359999Y-72506885D02*
X124402856Y-72506885D01*
X124402856Y-72506885D02*
X124431428Y-72521171D01*
X124431428Y-72521171D02*
X124445714Y-72535457D01*
X124445714Y-72535457D02*
X124459999Y-72564028D01*
X124459999Y-72564028D02*
X124459999Y-72649742D01*
X124459999Y-72649742D02*
X124445714Y-72678314D01*
X124445714Y-72678314D02*
X124431428Y-72692600D01*
X124431428Y-72692600D02*
X124402856Y-72706885D01*
X124402856Y-72706885D02*
X124359999Y-72706885D01*
X124545714Y-72506885D02*
X124660000Y-72506885D01*
X124588571Y-72406885D02*
X124588571Y-72664028D01*
X124588571Y-72664028D02*
X124602857Y-72692600D01*
X124602857Y-72692600D02*
X124631428Y-72706885D01*
X124631428Y-72706885D02*
X124660000Y-72706885D01*
X124802857Y-72706885D02*
X124774286Y-72692600D01*
X124774286Y-72692600D02*
X124760000Y-72678314D01*
X124760000Y-72678314D02*
X124745714Y-72649742D01*
X124745714Y-72649742D02*
X124745714Y-72564028D01*
X124745714Y-72564028D02*
X124760000Y-72535457D01*
X124760000Y-72535457D02*
X124774286Y-72521171D01*
X124774286Y-72521171D02*
X124802857Y-72506885D01*
X124802857Y-72506885D02*
X124845714Y-72506885D01*
X124845714Y-72506885D02*
X124874286Y-72521171D01*
X124874286Y-72521171D02*
X124888572Y-72535457D01*
X124888572Y-72535457D02*
X124902857Y-72564028D01*
X124902857Y-72564028D02*
X124902857Y-72649742D01*
X124902857Y-72649742D02*
X124888572Y-72678314D01*
X124888572Y-72678314D02*
X124874286Y-72692600D01*
X124874286Y-72692600D02*
X124845714Y-72706885D01*
X124845714Y-72706885D02*
X124802857Y-72706885D01*
X125031429Y-72706885D02*
X125031429Y-72506885D01*
X125031429Y-72564028D02*
X125045715Y-72535457D01*
X125045715Y-72535457D02*
X125060001Y-72521171D01*
X125060001Y-72521171D02*
X125088572Y-72506885D01*
X125088572Y-72506885D02*
X125117143Y-72506885D01*
X125202857Y-72435457D02*
X125217143Y-72421171D01*
X125217143Y-72421171D02*
X125245715Y-72406885D01*
X125245715Y-72406885D02*
X125317143Y-72406885D01*
X125317143Y-72406885D02*
X125345715Y-72421171D01*
X125345715Y-72421171D02*
X125360000Y-72435457D01*
X125360000Y-72435457D02*
X125374286Y-72464028D01*
X125374286Y-72464028D02*
X125374286Y-72492600D01*
X125374286Y-72492600D02*
X125360000Y-72535457D01*
X125360000Y-72535457D02*
X125188572Y-72706885D01*
X125188572Y-72706885D02*
X125374286Y-72706885D01*
X125602857Y-72549742D02*
X125645714Y-72564028D01*
X125645714Y-72564028D02*
X125660000Y-72578314D01*
X125660000Y-72578314D02*
X125674286Y-72606885D01*
X125674286Y-72606885D02*
X125674286Y-72649742D01*
X125674286Y-72649742D02*
X125660000Y-72678314D01*
X125660000Y-72678314D02*
X125645714Y-72692600D01*
X125645714Y-72692600D02*
X125617143Y-72706885D01*
X125617143Y-72706885D02*
X125502857Y-72706885D01*
X125502857Y-72706885D02*
X125502857Y-72406885D01*
X125502857Y-72406885D02*
X125602857Y-72406885D01*
X125602857Y-72406885D02*
X125631429Y-72421171D01*
X125631429Y-72421171D02*
X125645714Y-72435457D01*
X125645714Y-72435457D02*
X125660000Y-72464028D01*
X125660000Y-72464028D02*
X125660000Y-72492600D01*
X125660000Y-72492600D02*
X125645714Y-72521171D01*
X125645714Y-72521171D02*
X125631429Y-72535457D01*
X125631429Y-72535457D02*
X125602857Y-72549742D01*
X125602857Y-72549742D02*
X125502857Y-72549742D01*
X125960000Y-72706885D02*
X125788571Y-72706885D01*
X125874286Y-72706885D02*
X125874286Y-72406885D01*
X125874286Y-72406885D02*
X125845714Y-72449742D01*
X125845714Y-72449742D02*
X125817143Y-72478314D01*
X125817143Y-72478314D02*
X125788571Y-72492600D01*
D14*
X130683333Y-87454318D02*
X130259999Y-86849556D01*
X129957618Y-87454318D02*
X129957618Y-86184318D01*
X129957618Y-86184318D02*
X130441428Y-86184318D01*
X130441428Y-86184318D02*
X130562380Y-86244794D01*
X130562380Y-86244794D02*
X130622857Y-86305270D01*
X130622857Y-86305270D02*
X130683333Y-86426222D01*
X130683333Y-86426222D02*
X130683333Y-86607651D01*
X130683333Y-86607651D02*
X130622857Y-86728603D01*
X130622857Y-86728603D02*
X130562380Y-86789080D01*
X130562380Y-86789080D02*
X130441428Y-86849556D01*
X130441428Y-86849556D02*
X129957618Y-86849556D01*
X131106666Y-86184318D02*
X131953333Y-86184318D01*
X131953333Y-86184318D02*
X131409047Y-87454318D01*
D13*
X119802857Y-78506885D02*
X119974286Y-78506885D01*
X119888571Y-78806885D02*
X119888571Y-78506885D01*
X120074285Y-78806885D02*
X120074285Y-78506885D01*
X120074285Y-78506885D02*
X120188571Y-78506885D01*
X120188571Y-78506885D02*
X120217142Y-78521171D01*
X120217142Y-78521171D02*
X120231428Y-78535457D01*
X120231428Y-78535457D02*
X120245714Y-78564028D01*
X120245714Y-78564028D02*
X120245714Y-78606885D01*
X120245714Y-78606885D02*
X120231428Y-78635457D01*
X120231428Y-78635457D02*
X120217142Y-78649742D01*
X120217142Y-78649742D02*
X120188571Y-78664028D01*
X120188571Y-78664028D02*
X120074285Y-78664028D01*
X120531428Y-78806885D02*
X120359999Y-78806885D01*
X120445714Y-78806885D02*
X120445714Y-78506885D01*
X120445714Y-78506885D02*
X120417142Y-78549742D01*
X120417142Y-78549742D02*
X120388571Y-78578314D01*
X120388571Y-78578314D02*
X120359999Y-78592600D01*
X120588571Y-78835457D02*
X120817142Y-78835457D01*
X120888570Y-78806885D02*
X120888570Y-78606885D01*
X120888570Y-78635457D02*
X120902856Y-78621171D01*
X120902856Y-78621171D02*
X120931427Y-78606885D01*
X120931427Y-78606885D02*
X120974284Y-78606885D01*
X120974284Y-78606885D02*
X121002856Y-78621171D01*
X121002856Y-78621171D02*
X121017142Y-78649742D01*
X121017142Y-78649742D02*
X121017142Y-78806885D01*
X121017142Y-78649742D02*
X121031427Y-78621171D01*
X121031427Y-78621171D02*
X121059999Y-78606885D01*
X121059999Y-78606885D02*
X121102856Y-78606885D01*
X121102856Y-78606885D02*
X121131427Y-78621171D01*
X121131427Y-78621171D02*
X121145713Y-78649742D01*
X121145713Y-78649742D02*
X121145713Y-78806885D01*
X121331427Y-78806885D02*
X121302856Y-78792600D01*
X121302856Y-78792600D02*
X121288570Y-78778314D01*
X121288570Y-78778314D02*
X121274284Y-78749742D01*
X121274284Y-78749742D02*
X121274284Y-78664028D01*
X121274284Y-78664028D02*
X121288570Y-78635457D01*
X121288570Y-78635457D02*
X121302856Y-78621171D01*
X121302856Y-78621171D02*
X121331427Y-78606885D01*
X121331427Y-78606885D02*
X121374284Y-78606885D01*
X121374284Y-78606885D02*
X121402856Y-78621171D01*
X121402856Y-78621171D02*
X121417142Y-78635457D01*
X121417142Y-78635457D02*
X121431427Y-78664028D01*
X121431427Y-78664028D02*
X121431427Y-78749742D01*
X121431427Y-78749742D02*
X121417142Y-78778314D01*
X121417142Y-78778314D02*
X121402856Y-78792600D01*
X121402856Y-78792600D02*
X121374284Y-78806885D01*
X121374284Y-78806885D02*
X121331427Y-78806885D01*
X121517142Y-78606885D02*
X121631428Y-78606885D01*
X121559999Y-78506885D02*
X121559999Y-78764028D01*
X121559999Y-78764028D02*
X121574285Y-78792600D01*
X121574285Y-78792600D02*
X121602856Y-78806885D01*
X121602856Y-78806885D02*
X121631428Y-78806885D01*
X121774285Y-78806885D02*
X121745714Y-78792600D01*
X121745714Y-78792600D02*
X121731428Y-78778314D01*
X121731428Y-78778314D02*
X121717142Y-78749742D01*
X121717142Y-78749742D02*
X121717142Y-78664028D01*
X121717142Y-78664028D02*
X121731428Y-78635457D01*
X121731428Y-78635457D02*
X121745714Y-78621171D01*
X121745714Y-78621171D02*
X121774285Y-78606885D01*
X121774285Y-78606885D02*
X121817142Y-78606885D01*
X121817142Y-78606885D02*
X121845714Y-78621171D01*
X121845714Y-78621171D02*
X121860000Y-78635457D01*
X121860000Y-78635457D02*
X121874285Y-78664028D01*
X121874285Y-78664028D02*
X121874285Y-78749742D01*
X121874285Y-78749742D02*
X121860000Y-78778314D01*
X121860000Y-78778314D02*
X121845714Y-78792600D01*
X121845714Y-78792600D02*
X121817142Y-78806885D01*
X121817142Y-78806885D02*
X121774285Y-78806885D01*
X122002857Y-78806885D02*
X122002857Y-78606885D01*
X122002857Y-78664028D02*
X122017143Y-78635457D01*
X122017143Y-78635457D02*
X122031429Y-78621171D01*
X122031429Y-78621171D02*
X122060000Y-78606885D01*
X122060000Y-78606885D02*
X122088571Y-78606885D01*
X122174285Y-78535457D02*
X122188571Y-78521171D01*
X122188571Y-78521171D02*
X122217143Y-78506885D01*
X122217143Y-78506885D02*
X122288571Y-78506885D01*
X122288571Y-78506885D02*
X122317143Y-78521171D01*
X122317143Y-78521171D02*
X122331428Y-78535457D01*
X122331428Y-78535457D02*
X122345714Y-78564028D01*
X122345714Y-78564028D02*
X122345714Y-78592600D01*
X122345714Y-78592600D02*
X122331428Y-78635457D01*
X122331428Y-78635457D02*
X122160000Y-78806885D01*
X122160000Y-78806885D02*
X122345714Y-78806885D01*
X122459999Y-78721171D02*
X122602857Y-78721171D01*
X122431428Y-78806885D02*
X122531428Y-78506885D01*
X122531428Y-78506885D02*
X122631428Y-78806885D01*
X122888571Y-78806885D02*
X122717142Y-78806885D01*
X122802857Y-78806885D02*
X122802857Y-78506885D01*
X122802857Y-78506885D02*
X122774285Y-78549742D01*
X122774285Y-78549742D02*
X122745714Y-78578314D01*
X122745714Y-78578314D02*
X122717142Y-78592600D01*
D14*
X131173333Y-85354318D02*
X130749999Y-84749556D01*
X130447618Y-85354318D02*
X130447618Y-84084318D01*
X130447618Y-84084318D02*
X130931428Y-84084318D01*
X130931428Y-84084318D02*
X131052380Y-84144794D01*
X131052380Y-84144794D02*
X131112857Y-84205270D01*
X131112857Y-84205270D02*
X131173333Y-84326222D01*
X131173333Y-84326222D02*
X131173333Y-84507651D01*
X131173333Y-84507651D02*
X131112857Y-84628603D01*
X131112857Y-84628603D02*
X131052380Y-84689080D01*
X131052380Y-84689080D02*
X130931428Y-84749556D01*
X130931428Y-84749556D02*
X130447618Y-84749556D01*
X132261904Y-84084318D02*
X132019999Y-84084318D01*
X132019999Y-84084318D02*
X131899047Y-84144794D01*
X131899047Y-84144794D02*
X131838571Y-84205270D01*
X131838571Y-84205270D02*
X131717618Y-84386699D01*
X131717618Y-84386699D02*
X131657142Y-84628603D01*
X131657142Y-84628603D02*
X131657142Y-85112413D01*
X131657142Y-85112413D02*
X131717618Y-85233365D01*
X131717618Y-85233365D02*
X131778095Y-85293842D01*
X131778095Y-85293842D02*
X131899047Y-85354318D01*
X131899047Y-85354318D02*
X132140952Y-85354318D01*
X132140952Y-85354318D02*
X132261904Y-85293842D01*
X132261904Y-85293842D02*
X132322380Y-85233365D01*
X132322380Y-85233365D02*
X132382857Y-85112413D01*
X132382857Y-85112413D02*
X132382857Y-84810032D01*
X132382857Y-84810032D02*
X132322380Y-84689080D01*
X132322380Y-84689080D02*
X132261904Y-84628603D01*
X132261904Y-84628603D02*
X132140952Y-84568127D01*
X132140952Y-84568127D02*
X131899047Y-84568127D01*
X131899047Y-84568127D02*
X131778095Y-84628603D01*
X131778095Y-84628603D02*
X131717618Y-84689080D01*
X131717618Y-84689080D02*
X131657142Y-84810032D01*
D12*
X129528095Y-93218619D02*
X129528095Y-94028142D01*
X129528095Y-94028142D02*
X129575714Y-94123380D01*
X129575714Y-94123380D02*
X129623333Y-94171000D01*
X129623333Y-94171000D02*
X129718571Y-94218619D01*
X129718571Y-94218619D02*
X129909047Y-94218619D01*
X129909047Y-94218619D02*
X130004285Y-94171000D01*
X130004285Y-94171000D02*
X130051904Y-94123380D01*
X130051904Y-94123380D02*
X130099523Y-94028142D01*
X130099523Y-94028142D02*
X130099523Y-93218619D01*
X130528095Y-93313857D02*
X130575714Y-93266238D01*
X130575714Y-93266238D02*
X130670952Y-93218619D01*
X130670952Y-93218619D02*
X130909047Y-93218619D01*
X130909047Y-93218619D02*
X131004285Y-93266238D01*
X131004285Y-93266238D02*
X131051904Y-93313857D01*
X131051904Y-93313857D02*
X131099523Y-93409095D01*
X131099523Y-93409095D02*
X131099523Y-93504333D01*
X131099523Y-93504333D02*
X131051904Y-93647190D01*
X131051904Y-93647190D02*
X130480476Y-94218619D01*
X130480476Y-94218619D02*
X131099523Y-94218619D01*
D13*
X120252858Y-72406885D02*
X120424287Y-72406885D01*
X120338572Y-72706885D02*
X120338572Y-72406885D01*
X120524286Y-72706885D02*
X120524286Y-72406885D01*
X120524286Y-72406885D02*
X120638572Y-72406885D01*
X120638572Y-72406885D02*
X120667143Y-72421171D01*
X120667143Y-72421171D02*
X120681429Y-72435457D01*
X120681429Y-72435457D02*
X120695715Y-72464028D01*
X120695715Y-72464028D02*
X120695715Y-72506885D01*
X120695715Y-72506885D02*
X120681429Y-72535457D01*
X120681429Y-72535457D02*
X120667143Y-72549742D01*
X120667143Y-72549742D02*
X120638572Y-72564028D01*
X120638572Y-72564028D02*
X120524286Y-72564028D01*
X120981429Y-72706885D02*
X120810000Y-72706885D01*
X120895715Y-72706885D02*
X120895715Y-72406885D01*
X120895715Y-72406885D02*
X120867143Y-72449742D01*
X120867143Y-72449742D02*
X120838572Y-72478314D01*
X120838572Y-72478314D02*
X120810000Y-72492600D01*
X121038572Y-72735457D02*
X121267143Y-72735457D01*
X121310000Y-72406885D02*
X121495714Y-72406885D01*
X121495714Y-72406885D02*
X121395714Y-72521171D01*
X121395714Y-72521171D02*
X121438571Y-72521171D01*
X121438571Y-72521171D02*
X121467143Y-72535457D01*
X121467143Y-72535457D02*
X121481428Y-72549742D01*
X121481428Y-72549742D02*
X121495714Y-72578314D01*
X121495714Y-72578314D02*
X121495714Y-72649742D01*
X121495714Y-72649742D02*
X121481428Y-72678314D01*
X121481428Y-72678314D02*
X121467143Y-72692600D01*
X121467143Y-72692600D02*
X121438571Y-72706885D01*
X121438571Y-72706885D02*
X121352857Y-72706885D01*
X121352857Y-72706885D02*
X121324285Y-72692600D01*
X121324285Y-72692600D02*
X121310000Y-72678314D01*
X121624285Y-72678314D02*
X121638571Y-72692600D01*
X121638571Y-72692600D02*
X121624285Y-72706885D01*
X121624285Y-72706885D02*
X121609999Y-72692600D01*
X121609999Y-72692600D02*
X121624285Y-72678314D01*
X121624285Y-72678314D02*
X121624285Y-72706885D01*
X121738571Y-72406885D02*
X121924285Y-72406885D01*
X121924285Y-72406885D02*
X121824285Y-72521171D01*
X121824285Y-72521171D02*
X121867142Y-72521171D01*
X121867142Y-72521171D02*
X121895714Y-72535457D01*
X121895714Y-72535457D02*
X121909999Y-72549742D01*
X121909999Y-72549742D02*
X121924285Y-72578314D01*
X121924285Y-72578314D02*
X121924285Y-72649742D01*
X121924285Y-72649742D02*
X121909999Y-72678314D01*
X121909999Y-72678314D02*
X121895714Y-72692600D01*
X121895714Y-72692600D02*
X121867142Y-72706885D01*
X121867142Y-72706885D02*
X121781428Y-72706885D01*
X121781428Y-72706885D02*
X121752856Y-72692600D01*
X121752856Y-72692600D02*
X121738571Y-72678314D01*
X122024285Y-72506885D02*
X122095713Y-72706885D01*
X122095713Y-72706885D02*
X122167142Y-72506885D01*
X122438570Y-72706885D02*
X122267141Y-72706885D01*
X122352856Y-72706885D02*
X122352856Y-72406885D01*
X122352856Y-72406885D02*
X122324284Y-72449742D01*
X122324284Y-72449742D02*
X122295713Y-72478314D01*
X122295713Y-72478314D02*
X122267141Y-72492600D01*
X123081429Y-75456885D02*
X123252858Y-75456885D01*
X123167143Y-75756885D02*
X123167143Y-75456885D01*
X123352857Y-75756885D02*
X123352857Y-75456885D01*
X123352857Y-75456885D02*
X123467143Y-75456885D01*
X123467143Y-75456885D02*
X123495714Y-75471171D01*
X123495714Y-75471171D02*
X123510000Y-75485457D01*
X123510000Y-75485457D02*
X123524286Y-75514028D01*
X123524286Y-75514028D02*
X123524286Y-75556885D01*
X123524286Y-75556885D02*
X123510000Y-75585457D01*
X123510000Y-75585457D02*
X123495714Y-75599742D01*
X123495714Y-75599742D02*
X123467143Y-75614028D01*
X123467143Y-75614028D02*
X123352857Y-75614028D01*
X123638571Y-75485457D02*
X123652857Y-75471171D01*
X123652857Y-75471171D02*
X123681429Y-75456885D01*
X123681429Y-75456885D02*
X123752857Y-75456885D01*
X123752857Y-75456885D02*
X123781429Y-75471171D01*
X123781429Y-75471171D02*
X123795714Y-75485457D01*
X123795714Y-75485457D02*
X123810000Y-75514028D01*
X123810000Y-75514028D02*
X123810000Y-75542600D01*
X123810000Y-75542600D02*
X123795714Y-75585457D01*
X123795714Y-75585457D02*
X123624286Y-75756885D01*
X123624286Y-75756885D02*
X123810000Y-75756885D01*
X123867143Y-75785457D02*
X124095714Y-75785457D01*
X124167142Y-75642600D02*
X124395714Y-75642600D01*
X124281428Y-75756885D02*
X124281428Y-75528314D01*
X124638571Y-75599742D02*
X124681428Y-75614028D01*
X124681428Y-75614028D02*
X124695714Y-75628314D01*
X124695714Y-75628314D02*
X124710000Y-75656885D01*
X124710000Y-75656885D02*
X124710000Y-75699742D01*
X124710000Y-75699742D02*
X124695714Y-75728314D01*
X124695714Y-75728314D02*
X124681428Y-75742600D01*
X124681428Y-75742600D02*
X124652857Y-75756885D01*
X124652857Y-75756885D02*
X124538571Y-75756885D01*
X124538571Y-75756885D02*
X124538571Y-75456885D01*
X124538571Y-75456885D02*
X124638571Y-75456885D01*
X124638571Y-75456885D02*
X124667143Y-75471171D01*
X124667143Y-75471171D02*
X124681428Y-75485457D01*
X124681428Y-75485457D02*
X124695714Y-75514028D01*
X124695714Y-75514028D02*
X124695714Y-75542600D01*
X124695714Y-75542600D02*
X124681428Y-75571171D01*
X124681428Y-75571171D02*
X124667143Y-75585457D01*
X124667143Y-75585457D02*
X124638571Y-75599742D01*
X124638571Y-75599742D02*
X124538571Y-75599742D01*
X124824285Y-75671171D02*
X124967143Y-75671171D01*
X124795714Y-75756885D02*
X124895714Y-75456885D01*
X124895714Y-75456885D02*
X124995714Y-75756885D01*
X125052857Y-75456885D02*
X125224286Y-75456885D01*
X125138571Y-75756885D02*
X125138571Y-75456885D01*
X125281428Y-75456885D02*
X125452857Y-75456885D01*
X125367142Y-75756885D02*
X125367142Y-75456885D01*
X125709999Y-75756885D02*
X125538570Y-75756885D01*
X125624285Y-75756885D02*
X125624285Y-75456885D01*
X125624285Y-75456885D02*
X125595713Y-75499742D01*
X125595713Y-75499742D02*
X125567142Y-75528314D01*
X125567142Y-75528314D02*
X125538570Y-75542600D01*
X119781429Y-75456885D02*
X119952858Y-75456885D01*
X119867143Y-75756885D02*
X119867143Y-75456885D01*
X120052857Y-75756885D02*
X120052857Y-75456885D01*
X120052857Y-75456885D02*
X120167143Y-75456885D01*
X120167143Y-75456885D02*
X120195714Y-75471171D01*
X120195714Y-75471171D02*
X120210000Y-75485457D01*
X120210000Y-75485457D02*
X120224286Y-75514028D01*
X120224286Y-75514028D02*
X120224286Y-75556885D01*
X120224286Y-75556885D02*
X120210000Y-75585457D01*
X120210000Y-75585457D02*
X120195714Y-75599742D01*
X120195714Y-75599742D02*
X120167143Y-75614028D01*
X120167143Y-75614028D02*
X120052857Y-75614028D01*
X120510000Y-75756885D02*
X120338571Y-75756885D01*
X120424286Y-75756885D02*
X120424286Y-75456885D01*
X120424286Y-75456885D02*
X120395714Y-75499742D01*
X120395714Y-75499742D02*
X120367143Y-75528314D01*
X120367143Y-75528314D02*
X120338571Y-75542600D01*
X120567143Y-75785457D02*
X120795714Y-75785457D01*
X120867142Y-75756885D02*
X120867142Y-75556885D01*
X120867142Y-75585457D02*
X120881428Y-75571171D01*
X120881428Y-75571171D02*
X120909999Y-75556885D01*
X120909999Y-75556885D02*
X120952856Y-75556885D01*
X120952856Y-75556885D02*
X120981428Y-75571171D01*
X120981428Y-75571171D02*
X120995714Y-75599742D01*
X120995714Y-75599742D02*
X120995714Y-75756885D01*
X120995714Y-75599742D02*
X121009999Y-75571171D01*
X121009999Y-75571171D02*
X121038571Y-75556885D01*
X121038571Y-75556885D02*
X121081428Y-75556885D01*
X121081428Y-75556885D02*
X121109999Y-75571171D01*
X121109999Y-75571171D02*
X121124285Y-75599742D01*
X121124285Y-75599742D02*
X121124285Y-75756885D01*
X121309999Y-75756885D02*
X121281428Y-75742600D01*
X121281428Y-75742600D02*
X121267142Y-75728314D01*
X121267142Y-75728314D02*
X121252856Y-75699742D01*
X121252856Y-75699742D02*
X121252856Y-75614028D01*
X121252856Y-75614028D02*
X121267142Y-75585457D01*
X121267142Y-75585457D02*
X121281428Y-75571171D01*
X121281428Y-75571171D02*
X121309999Y-75556885D01*
X121309999Y-75556885D02*
X121352856Y-75556885D01*
X121352856Y-75556885D02*
X121381428Y-75571171D01*
X121381428Y-75571171D02*
X121395714Y-75585457D01*
X121395714Y-75585457D02*
X121409999Y-75614028D01*
X121409999Y-75614028D02*
X121409999Y-75699742D01*
X121409999Y-75699742D02*
X121395714Y-75728314D01*
X121395714Y-75728314D02*
X121381428Y-75742600D01*
X121381428Y-75742600D02*
X121352856Y-75756885D01*
X121352856Y-75756885D02*
X121309999Y-75756885D01*
X121495714Y-75556885D02*
X121610000Y-75556885D01*
X121538571Y-75456885D02*
X121538571Y-75714028D01*
X121538571Y-75714028D02*
X121552857Y-75742600D01*
X121552857Y-75742600D02*
X121581428Y-75756885D01*
X121581428Y-75756885D02*
X121610000Y-75756885D01*
X121752857Y-75756885D02*
X121724286Y-75742600D01*
X121724286Y-75742600D02*
X121710000Y-75728314D01*
X121710000Y-75728314D02*
X121695714Y-75699742D01*
X121695714Y-75699742D02*
X121695714Y-75614028D01*
X121695714Y-75614028D02*
X121710000Y-75585457D01*
X121710000Y-75585457D02*
X121724286Y-75571171D01*
X121724286Y-75571171D02*
X121752857Y-75556885D01*
X121752857Y-75556885D02*
X121795714Y-75556885D01*
X121795714Y-75556885D02*
X121824286Y-75571171D01*
X121824286Y-75571171D02*
X121838572Y-75585457D01*
X121838572Y-75585457D02*
X121852857Y-75614028D01*
X121852857Y-75614028D02*
X121852857Y-75699742D01*
X121852857Y-75699742D02*
X121838572Y-75728314D01*
X121838572Y-75728314D02*
X121824286Y-75742600D01*
X121824286Y-75742600D02*
X121795714Y-75756885D01*
X121795714Y-75756885D02*
X121752857Y-75756885D01*
X121981429Y-75756885D02*
X121981429Y-75556885D01*
X121981429Y-75614028D02*
X121995715Y-75585457D01*
X121995715Y-75585457D02*
X122010001Y-75571171D01*
X122010001Y-75571171D02*
X122038572Y-75556885D01*
X122038572Y-75556885D02*
X122067143Y-75556885D01*
X122324286Y-75756885D02*
X122152857Y-75756885D01*
X122238572Y-75756885D02*
X122238572Y-75456885D01*
X122238572Y-75456885D02*
X122210000Y-75499742D01*
X122210000Y-75499742D02*
X122181429Y-75528314D01*
X122181429Y-75528314D02*
X122152857Y-75542600D01*
X122552857Y-75599742D02*
X122595714Y-75614028D01*
X122595714Y-75614028D02*
X122610000Y-75628314D01*
X122610000Y-75628314D02*
X122624286Y-75656885D01*
X122624286Y-75656885D02*
X122624286Y-75699742D01*
X122624286Y-75699742D02*
X122610000Y-75728314D01*
X122610000Y-75728314D02*
X122595714Y-75742600D01*
X122595714Y-75742600D02*
X122567143Y-75756885D01*
X122567143Y-75756885D02*
X122452857Y-75756885D01*
X122452857Y-75756885D02*
X122452857Y-75456885D01*
X122452857Y-75456885D02*
X122552857Y-75456885D01*
X122552857Y-75456885D02*
X122581429Y-75471171D01*
X122581429Y-75471171D02*
X122595714Y-75485457D01*
X122595714Y-75485457D02*
X122610000Y-75514028D01*
X122610000Y-75514028D02*
X122610000Y-75542600D01*
X122610000Y-75542600D02*
X122595714Y-75571171D01*
X122595714Y-75571171D02*
X122581429Y-75585457D01*
X122581429Y-75585457D02*
X122552857Y-75599742D01*
X122552857Y-75599742D02*
X122452857Y-75599742D01*
X122910000Y-75756885D02*
X122738571Y-75756885D01*
X122824286Y-75756885D02*
X122824286Y-75456885D01*
X122824286Y-75456885D02*
X122795714Y-75499742D01*
X122795714Y-75499742D02*
X122767143Y-75528314D01*
X122767143Y-75528314D02*
X122738571Y-75542600D01*
X126438572Y-72406885D02*
X126610001Y-72406885D01*
X126524286Y-72706885D02*
X126524286Y-72406885D01*
X126710000Y-72706885D02*
X126710000Y-72406885D01*
X126710000Y-72406885D02*
X126824286Y-72406885D01*
X126824286Y-72406885D02*
X126852857Y-72421171D01*
X126852857Y-72421171D02*
X126867143Y-72435457D01*
X126867143Y-72435457D02*
X126881429Y-72464028D01*
X126881429Y-72464028D02*
X126881429Y-72506885D01*
X126881429Y-72506885D02*
X126867143Y-72535457D01*
X126867143Y-72535457D02*
X126852857Y-72549742D01*
X126852857Y-72549742D02*
X126824286Y-72564028D01*
X126824286Y-72564028D02*
X126710000Y-72564028D01*
X126981429Y-72406885D02*
X127181429Y-72406885D01*
X127181429Y-72406885D02*
X127052857Y-72706885D01*
X127224286Y-72735457D02*
X127452857Y-72735457D01*
X127667142Y-72406885D02*
X127524285Y-72406885D01*
X127524285Y-72406885D02*
X127509999Y-72549742D01*
X127509999Y-72549742D02*
X127524285Y-72535457D01*
X127524285Y-72535457D02*
X127552857Y-72521171D01*
X127552857Y-72521171D02*
X127624285Y-72521171D01*
X127624285Y-72521171D02*
X127652857Y-72535457D01*
X127652857Y-72535457D02*
X127667142Y-72549742D01*
X127667142Y-72549742D02*
X127681428Y-72578314D01*
X127681428Y-72578314D02*
X127681428Y-72649742D01*
X127681428Y-72649742D02*
X127667142Y-72678314D01*
X127667142Y-72678314D02*
X127652857Y-72692600D01*
X127652857Y-72692600D02*
X127624285Y-72706885D01*
X127624285Y-72706885D02*
X127552857Y-72706885D01*
X127552857Y-72706885D02*
X127524285Y-72692600D01*
X127524285Y-72692600D02*
X127509999Y-72678314D01*
X127767142Y-72406885D02*
X127867142Y-72706885D01*
X127867142Y-72706885D02*
X127967142Y-72406885D01*
X127995714Y-72735457D02*
X128224285Y-72735457D01*
X128452856Y-72706885D02*
X128281427Y-72706885D01*
X128367142Y-72706885D02*
X128367142Y-72406885D01*
X128367142Y-72406885D02*
X128338570Y-72449742D01*
X128338570Y-72449742D02*
X128309999Y-72478314D01*
X128309999Y-72478314D02*
X128281427Y-72492600D01*
X126581429Y-78506885D02*
X126752858Y-78506885D01*
X126667143Y-78806885D02*
X126667143Y-78506885D01*
X126852857Y-78806885D02*
X126852857Y-78506885D01*
X126852857Y-78506885D02*
X126967143Y-78506885D01*
X126967143Y-78506885D02*
X126995714Y-78521171D01*
X126995714Y-78521171D02*
X127010000Y-78535457D01*
X127010000Y-78535457D02*
X127024286Y-78564028D01*
X127024286Y-78564028D02*
X127024286Y-78606885D01*
X127024286Y-78606885D02*
X127010000Y-78635457D01*
X127010000Y-78635457D02*
X126995714Y-78649742D01*
X126995714Y-78649742D02*
X126967143Y-78664028D01*
X126967143Y-78664028D02*
X126852857Y-78664028D01*
X127081429Y-78835457D02*
X127310000Y-78835457D01*
X127524285Y-78506885D02*
X127381428Y-78506885D01*
X127381428Y-78506885D02*
X127367142Y-78649742D01*
X127367142Y-78649742D02*
X127381428Y-78635457D01*
X127381428Y-78635457D02*
X127410000Y-78621171D01*
X127410000Y-78621171D02*
X127481428Y-78621171D01*
X127481428Y-78621171D02*
X127510000Y-78635457D01*
X127510000Y-78635457D02*
X127524285Y-78649742D01*
X127524285Y-78649742D02*
X127538571Y-78678314D01*
X127538571Y-78678314D02*
X127538571Y-78749742D01*
X127538571Y-78749742D02*
X127524285Y-78778314D01*
X127524285Y-78778314D02*
X127510000Y-78792600D01*
X127510000Y-78792600D02*
X127481428Y-78806885D01*
X127481428Y-78806885D02*
X127410000Y-78806885D01*
X127410000Y-78806885D02*
X127381428Y-78792600D01*
X127381428Y-78792600D02*
X127367142Y-78778314D01*
X127624285Y-78506885D02*
X127724285Y-78806885D01*
X127724285Y-78806885D02*
X127824285Y-78506885D01*
X127852857Y-78835457D02*
X128081428Y-78835457D01*
X128138570Y-78535457D02*
X128152856Y-78521171D01*
X128152856Y-78521171D02*
X128181428Y-78506885D01*
X128181428Y-78506885D02*
X128252856Y-78506885D01*
X128252856Y-78506885D02*
X128281428Y-78521171D01*
X128281428Y-78521171D02*
X128295713Y-78535457D01*
X128295713Y-78535457D02*
X128309999Y-78564028D01*
X128309999Y-78564028D02*
X128309999Y-78592600D01*
X128309999Y-78592600D02*
X128295713Y-78635457D01*
X128295713Y-78635457D02*
X128124285Y-78806885D01*
X128124285Y-78806885D02*
X128309999Y-78806885D01*
D14*
X131173333Y-83204318D02*
X130749999Y-82599556D01*
X130447618Y-83204318D02*
X130447618Y-81934318D01*
X130447618Y-81934318D02*
X130931428Y-81934318D01*
X130931428Y-81934318D02*
X131052380Y-81994794D01*
X131052380Y-81994794D02*
X131112857Y-82055270D01*
X131112857Y-82055270D02*
X131173333Y-82176222D01*
X131173333Y-82176222D02*
X131173333Y-82357651D01*
X131173333Y-82357651D02*
X131112857Y-82478603D01*
X131112857Y-82478603D02*
X131052380Y-82539080D01*
X131052380Y-82539080D02*
X130931428Y-82599556D01*
X130931428Y-82599556D02*
X130447618Y-82599556D01*
X132322380Y-81934318D02*
X131717618Y-81934318D01*
X131717618Y-81934318D02*
X131657142Y-82539080D01*
X131657142Y-82539080D02*
X131717618Y-82478603D01*
X131717618Y-82478603D02*
X131838571Y-82418127D01*
X131838571Y-82418127D02*
X132140952Y-82418127D01*
X132140952Y-82418127D02*
X132261904Y-82478603D01*
X132261904Y-82478603D02*
X132322380Y-82539080D01*
X132322380Y-82539080D02*
X132382857Y-82660032D01*
X132382857Y-82660032D02*
X132382857Y-82962413D01*
X132382857Y-82962413D02*
X132322380Y-83083365D01*
X132322380Y-83083365D02*
X132261904Y-83143842D01*
X132261904Y-83143842D02*
X132140952Y-83204318D01*
X132140952Y-83204318D02*
X131838571Y-83204318D01*
X131838571Y-83204318D02*
X131717618Y-83143842D01*
X131717618Y-83143842D02*
X131657142Y-83083365D01*
X131173333Y-81054318D02*
X130749999Y-80449556D01*
X130447618Y-81054318D02*
X130447618Y-79784318D01*
X130447618Y-79784318D02*
X130931428Y-79784318D01*
X130931428Y-79784318D02*
X131052380Y-79844794D01*
X131052380Y-79844794D02*
X131112857Y-79905270D01*
X131112857Y-79905270D02*
X131173333Y-80026222D01*
X131173333Y-80026222D02*
X131173333Y-80207651D01*
X131173333Y-80207651D02*
X131112857Y-80328603D01*
X131112857Y-80328603D02*
X131052380Y-80389080D01*
X131052380Y-80389080D02*
X130931428Y-80449556D01*
X130931428Y-80449556D02*
X130447618Y-80449556D01*
X132261904Y-80207651D02*
X132261904Y-81054318D01*
X131959523Y-79723842D02*
X131657142Y-80630984D01*
X131657142Y-80630984D02*
X132443333Y-80630984D01*
X134898333Y-86354318D02*
X134474999Y-85749556D01*
X134172618Y-86354318D02*
X134172618Y-85084318D01*
X134172618Y-85084318D02*
X134656428Y-85084318D01*
X134656428Y-85084318D02*
X134777380Y-85144794D01*
X134777380Y-85144794D02*
X134837857Y-85205270D01*
X134837857Y-85205270D02*
X134898333Y-85326222D01*
X134898333Y-85326222D02*
X134898333Y-85507651D01*
X134898333Y-85507651D02*
X134837857Y-85628603D01*
X134837857Y-85628603D02*
X134777380Y-85689080D01*
X134777380Y-85689080D02*
X134656428Y-85749556D01*
X134656428Y-85749556D02*
X134172618Y-85749556D01*
X135321666Y-85084318D02*
X136107857Y-85084318D01*
X136107857Y-85084318D02*
X135684523Y-85568127D01*
X135684523Y-85568127D02*
X135865952Y-85568127D01*
X135865952Y-85568127D02*
X135986904Y-85628603D01*
X135986904Y-85628603D02*
X136047380Y-85689080D01*
X136047380Y-85689080D02*
X136107857Y-85810032D01*
X136107857Y-85810032D02*
X136107857Y-86112413D01*
X136107857Y-86112413D02*
X136047380Y-86233365D01*
X136047380Y-86233365D02*
X135986904Y-86293842D01*
X135986904Y-86293842D02*
X135865952Y-86354318D01*
X135865952Y-86354318D02*
X135503095Y-86354318D01*
X135503095Y-86354318D02*
X135382142Y-86293842D01*
X135382142Y-86293842D02*
X135321666Y-86233365D01*
D12*
X135010533Y-88828780D02*
X134962914Y-88876400D01*
X134962914Y-88876400D02*
X134820057Y-88924019D01*
X134820057Y-88924019D02*
X134724819Y-88924019D01*
X134724819Y-88924019D02*
X134581962Y-88876400D01*
X134581962Y-88876400D02*
X134486724Y-88781161D01*
X134486724Y-88781161D02*
X134439105Y-88685923D01*
X134439105Y-88685923D02*
X134391486Y-88495447D01*
X134391486Y-88495447D02*
X134391486Y-88352590D01*
X134391486Y-88352590D02*
X134439105Y-88162114D01*
X134439105Y-88162114D02*
X134486724Y-88066876D01*
X134486724Y-88066876D02*
X134581962Y-87971638D01*
X134581962Y-87971638D02*
X134724819Y-87924019D01*
X134724819Y-87924019D02*
X134820057Y-87924019D01*
X134820057Y-87924019D02*
X134962914Y-87971638D01*
X134962914Y-87971638D02*
X135010533Y-88019257D01*
X135962914Y-88924019D02*
X135391486Y-88924019D01*
X135677200Y-88924019D02*
X135677200Y-87924019D01*
X135677200Y-87924019D02*
X135581962Y-88066876D01*
X135581962Y-88066876D02*
X135486724Y-88162114D01*
X135486724Y-88162114D02*
X135391486Y-88209733D01*
D14*
X123248237Y-85199318D02*
X123248237Y-83929318D01*
X124578714Y-85078365D02*
X124518238Y-85138842D01*
X124518238Y-85138842D02*
X124336809Y-85199318D01*
X124336809Y-85199318D02*
X124215857Y-85199318D01*
X124215857Y-85199318D02*
X124034428Y-85138842D01*
X124034428Y-85138842D02*
X123913476Y-85017889D01*
X123913476Y-85017889D02*
X123852999Y-84896937D01*
X123852999Y-84896937D02*
X123792523Y-84655032D01*
X123792523Y-84655032D02*
X123792523Y-84473603D01*
X123792523Y-84473603D02*
X123852999Y-84231699D01*
X123852999Y-84231699D02*
X123913476Y-84110746D01*
X123913476Y-84110746D02*
X124034428Y-83989794D01*
X124034428Y-83989794D02*
X124215857Y-83929318D01*
X124215857Y-83929318D02*
X124336809Y-83929318D01*
X124336809Y-83929318D02*
X124518238Y-83989794D01*
X124518238Y-83989794D02*
X124578714Y-84050270D01*
X125788238Y-85199318D02*
X125062523Y-85199318D01*
X125425380Y-85199318D02*
X125425380Y-83929318D01*
X125425380Y-83929318D02*
X125304428Y-84110746D01*
X125304428Y-84110746D02*
X125183476Y-84231699D01*
X125183476Y-84231699D02*
X125062523Y-84292175D01*
X134898333Y-83804318D02*
X134474999Y-83199556D01*
X134172618Y-83804318D02*
X134172618Y-82534318D01*
X134172618Y-82534318D02*
X134656428Y-82534318D01*
X134656428Y-82534318D02*
X134777380Y-82594794D01*
X134777380Y-82594794D02*
X134837857Y-82655270D01*
X134837857Y-82655270D02*
X134898333Y-82776222D01*
X134898333Y-82776222D02*
X134898333Y-82957651D01*
X134898333Y-82957651D02*
X134837857Y-83078603D01*
X134837857Y-83078603D02*
X134777380Y-83139080D01*
X134777380Y-83139080D02*
X134656428Y-83199556D01*
X134656428Y-83199556D02*
X134172618Y-83199556D01*
X135382142Y-82655270D02*
X135442618Y-82594794D01*
X135442618Y-82594794D02*
X135563571Y-82534318D01*
X135563571Y-82534318D02*
X135865952Y-82534318D01*
X135865952Y-82534318D02*
X135986904Y-82594794D01*
X135986904Y-82594794D02*
X136047380Y-82655270D01*
X136047380Y-82655270D02*
X136107857Y-82776222D01*
X136107857Y-82776222D02*
X136107857Y-82897175D01*
X136107857Y-82897175D02*
X136047380Y-83078603D01*
X136047380Y-83078603D02*
X135321666Y-83804318D01*
X135321666Y-83804318D02*
X136107857Y-83804318D01*
D12*
X135010533Y-93149580D02*
X134962914Y-93197200D01*
X134962914Y-93197200D02*
X134820057Y-93244819D01*
X134820057Y-93244819D02*
X134724819Y-93244819D01*
X134724819Y-93244819D02*
X134581962Y-93197200D01*
X134581962Y-93197200D02*
X134486724Y-93101961D01*
X134486724Y-93101961D02*
X134439105Y-93006723D01*
X134439105Y-93006723D02*
X134391486Y-92816247D01*
X134391486Y-92816247D02*
X134391486Y-92673390D01*
X134391486Y-92673390D02*
X134439105Y-92482914D01*
X134439105Y-92482914D02*
X134486724Y-92387676D01*
X134486724Y-92387676D02*
X134581962Y-92292438D01*
X134581962Y-92292438D02*
X134724819Y-92244819D01*
X134724819Y-92244819D02*
X134820057Y-92244819D01*
X134820057Y-92244819D02*
X134962914Y-92292438D01*
X134962914Y-92292438D02*
X135010533Y-92340057D01*
X135867676Y-92244819D02*
X135677200Y-92244819D01*
X135677200Y-92244819D02*
X135581962Y-92292438D01*
X135581962Y-92292438D02*
X135534343Y-92340057D01*
X135534343Y-92340057D02*
X135439105Y-92482914D01*
X135439105Y-92482914D02*
X135391486Y-92673390D01*
X135391486Y-92673390D02*
X135391486Y-93054342D01*
X135391486Y-93054342D02*
X135439105Y-93149580D01*
X135439105Y-93149580D02*
X135486724Y-93197200D01*
X135486724Y-93197200D02*
X135581962Y-93244819D01*
X135581962Y-93244819D02*
X135772438Y-93244819D01*
X135772438Y-93244819D02*
X135867676Y-93197200D01*
X135867676Y-93197200D02*
X135915295Y-93149580D01*
X135915295Y-93149580D02*
X135962914Y-93054342D01*
X135962914Y-93054342D02*
X135962914Y-92816247D01*
X135962914Y-92816247D02*
X135915295Y-92721009D01*
X135915295Y-92721009D02*
X135867676Y-92673390D01*
X135867676Y-92673390D02*
X135772438Y-92625771D01*
X135772438Y-92625771D02*
X135581962Y-92625771D01*
X135581962Y-92625771D02*
X135486724Y-92673390D01*
X135486724Y-92673390D02*
X135439105Y-92721009D01*
X135439105Y-92721009D02*
X135391486Y-92816247D01*
X116596666Y-70534819D02*
X116596666Y-71249104D01*
X116596666Y-71249104D02*
X116549047Y-71391961D01*
X116549047Y-71391961D02*
X116453809Y-71487200D01*
X116453809Y-71487200D02*
X116310952Y-71534819D01*
X116310952Y-71534819D02*
X116215714Y-71534819D01*
X117596666Y-71534819D02*
X117025238Y-71534819D01*
X117310952Y-71534819D02*
X117310952Y-70534819D01*
X117310952Y-70534819D02*
X117215714Y-70677676D01*
X117215714Y-70677676D02*
X117120476Y-70772914D01*
X117120476Y-70772914D02*
X117025238Y-70820533D01*
D14*
X132193333Y-88953365D02*
X132132857Y-89013842D01*
X132132857Y-89013842D02*
X131951428Y-89074318D01*
X131951428Y-89074318D02*
X131830476Y-89074318D01*
X131830476Y-89074318D02*
X131649047Y-89013842D01*
X131649047Y-89013842D02*
X131528095Y-88892889D01*
X131528095Y-88892889D02*
X131467618Y-88771937D01*
X131467618Y-88771937D02*
X131407142Y-88530032D01*
X131407142Y-88530032D02*
X131407142Y-88348603D01*
X131407142Y-88348603D02*
X131467618Y-88106699D01*
X131467618Y-88106699D02*
X131528095Y-87985746D01*
X131528095Y-87985746D02*
X131649047Y-87864794D01*
X131649047Y-87864794D02*
X131830476Y-87804318D01*
X131830476Y-87804318D02*
X131951428Y-87804318D01*
X131951428Y-87804318D02*
X132132857Y-87864794D01*
X132132857Y-87864794D02*
X132193333Y-87925270D01*
X132616666Y-87804318D02*
X133402857Y-87804318D01*
X133402857Y-87804318D02*
X132979523Y-88288127D01*
X132979523Y-88288127D02*
X133160952Y-88288127D01*
X133160952Y-88288127D02*
X133281904Y-88348603D01*
X133281904Y-88348603D02*
X133342380Y-88409080D01*
X133342380Y-88409080D02*
X133402857Y-88530032D01*
X133402857Y-88530032D02*
X133402857Y-88832413D01*
X133402857Y-88832413D02*
X133342380Y-88953365D01*
X133342380Y-88953365D02*
X133281904Y-89013842D01*
X133281904Y-89013842D02*
X133160952Y-89074318D01*
X133160952Y-89074318D02*
X132798095Y-89074318D01*
X132798095Y-89074318D02*
X132677142Y-89013842D01*
X132677142Y-89013842D02*
X132616666Y-88953365D01*
D12*
X123643995Y-90209819D02*
X123643995Y-91019342D01*
X123643995Y-91019342D02*
X123691614Y-91114580D01*
X123691614Y-91114580D02*
X123739233Y-91162200D01*
X123739233Y-91162200D02*
X123834471Y-91209819D01*
X123834471Y-91209819D02*
X124024947Y-91209819D01*
X124024947Y-91209819D02*
X124120185Y-91162200D01*
X124120185Y-91162200D02*
X124167804Y-91114580D01*
X124167804Y-91114580D02*
X124215423Y-91019342D01*
X124215423Y-91019342D02*
X124215423Y-90209819D01*
X125215423Y-91209819D02*
X124643995Y-91209819D01*
X124929709Y-91209819D02*
X124929709Y-90209819D01*
X124929709Y-90209819D02*
X124834471Y-90352676D01*
X124834471Y-90352676D02*
X124739233Y-90447914D01*
X124739233Y-90447914D02*
X124643995Y-90495533D01*
X121427750Y-86603019D02*
X121427750Y-86841114D01*
X121189655Y-86745876D02*
X121427750Y-86841114D01*
X121427750Y-86841114D02*
X121665845Y-86745876D01*
X121284893Y-87031590D02*
X121427750Y-86841114D01*
X121427750Y-86841114D02*
X121570607Y-87031590D01*
X121427750Y-86603019D02*
X121427750Y-86841114D01*
X121189655Y-86745876D02*
X121427750Y-86841114D01*
X121427750Y-86841114D02*
X121665845Y-86745876D01*
X121284893Y-87031590D02*
X121427750Y-86841114D01*
X121427750Y-86841114D02*
X121570607Y-87031590D01*
X135010533Y-90989180D02*
X134962914Y-91036800D01*
X134962914Y-91036800D02*
X134820057Y-91084419D01*
X134820057Y-91084419D02*
X134724819Y-91084419D01*
X134724819Y-91084419D02*
X134581962Y-91036800D01*
X134581962Y-91036800D02*
X134486724Y-90941561D01*
X134486724Y-90941561D02*
X134439105Y-90846323D01*
X134439105Y-90846323D02*
X134391486Y-90655847D01*
X134391486Y-90655847D02*
X134391486Y-90512990D01*
X134391486Y-90512990D02*
X134439105Y-90322514D01*
X134439105Y-90322514D02*
X134486724Y-90227276D01*
X134486724Y-90227276D02*
X134581962Y-90132038D01*
X134581962Y-90132038D02*
X134724819Y-90084419D01*
X134724819Y-90084419D02*
X134820057Y-90084419D01*
X134820057Y-90084419D02*
X134962914Y-90132038D01*
X134962914Y-90132038D02*
X135010533Y-90179657D01*
X135391486Y-90179657D02*
X135439105Y-90132038D01*
X135439105Y-90132038D02*
X135534343Y-90084419D01*
X135534343Y-90084419D02*
X135772438Y-90084419D01*
X135772438Y-90084419D02*
X135867676Y-90132038D01*
X135867676Y-90132038D02*
X135915295Y-90179657D01*
X135915295Y-90179657D02*
X135962914Y-90274895D01*
X135962914Y-90274895D02*
X135962914Y-90370133D01*
X135962914Y-90370133D02*
X135915295Y-90512990D01*
X135915295Y-90512990D02*
X135343867Y-91084419D01*
X135343867Y-91084419D02*
X135962914Y-91084419D01*
D14*
X129308333Y-88953365D02*
X129247857Y-89013842D01*
X129247857Y-89013842D02*
X129066428Y-89074318D01*
X129066428Y-89074318D02*
X128945476Y-89074318D01*
X128945476Y-89074318D02*
X128764047Y-89013842D01*
X128764047Y-89013842D02*
X128643095Y-88892889D01*
X128643095Y-88892889D02*
X128582618Y-88771937D01*
X128582618Y-88771937D02*
X128522142Y-88530032D01*
X128522142Y-88530032D02*
X128522142Y-88348603D01*
X128522142Y-88348603D02*
X128582618Y-88106699D01*
X128582618Y-88106699D02*
X128643095Y-87985746D01*
X128643095Y-87985746D02*
X128764047Y-87864794D01*
X128764047Y-87864794D02*
X128945476Y-87804318D01*
X128945476Y-87804318D02*
X129066428Y-87804318D01*
X129066428Y-87804318D02*
X129247857Y-87864794D01*
X129247857Y-87864794D02*
X129308333Y-87925270D01*
X130396904Y-88227651D02*
X130396904Y-89074318D01*
X130094523Y-87743842D02*
X129792142Y-88650984D01*
X129792142Y-88650984D02*
X130578333Y-88650984D01*
D13*
X123081429Y-78506885D02*
X123252858Y-78506885D01*
X123167143Y-78806885D02*
X123167143Y-78506885D01*
X123352857Y-78806885D02*
X123352857Y-78506885D01*
X123352857Y-78506885D02*
X123467143Y-78506885D01*
X123467143Y-78506885D02*
X123495714Y-78521171D01*
X123495714Y-78521171D02*
X123510000Y-78535457D01*
X123510000Y-78535457D02*
X123524286Y-78564028D01*
X123524286Y-78564028D02*
X123524286Y-78606885D01*
X123524286Y-78606885D02*
X123510000Y-78635457D01*
X123510000Y-78635457D02*
X123495714Y-78649742D01*
X123495714Y-78649742D02*
X123467143Y-78664028D01*
X123467143Y-78664028D02*
X123352857Y-78664028D01*
X123781429Y-78506885D02*
X123724286Y-78506885D01*
X123724286Y-78506885D02*
X123695714Y-78521171D01*
X123695714Y-78521171D02*
X123681429Y-78535457D01*
X123681429Y-78535457D02*
X123652857Y-78578314D01*
X123652857Y-78578314D02*
X123638571Y-78635457D01*
X123638571Y-78635457D02*
X123638571Y-78749742D01*
X123638571Y-78749742D02*
X123652857Y-78778314D01*
X123652857Y-78778314D02*
X123667143Y-78792600D01*
X123667143Y-78792600D02*
X123695714Y-78806885D01*
X123695714Y-78806885D02*
X123752857Y-78806885D01*
X123752857Y-78806885D02*
X123781429Y-78792600D01*
X123781429Y-78792600D02*
X123795714Y-78778314D01*
X123795714Y-78778314D02*
X123810000Y-78749742D01*
X123810000Y-78749742D02*
X123810000Y-78678314D01*
X123810000Y-78678314D02*
X123795714Y-78649742D01*
X123795714Y-78649742D02*
X123781429Y-78635457D01*
X123781429Y-78635457D02*
X123752857Y-78621171D01*
X123752857Y-78621171D02*
X123695714Y-78621171D01*
X123695714Y-78621171D02*
X123667143Y-78635457D01*
X123667143Y-78635457D02*
X123652857Y-78649742D01*
X123652857Y-78649742D02*
X123638571Y-78678314D01*
X123867143Y-78835457D02*
X124095714Y-78835457D01*
X124167142Y-78692600D02*
X124395714Y-78692600D01*
X124281428Y-78806885D02*
X124281428Y-78578314D01*
X124638571Y-78649742D02*
X124681428Y-78664028D01*
X124681428Y-78664028D02*
X124695714Y-78678314D01*
X124695714Y-78678314D02*
X124710000Y-78706885D01*
X124710000Y-78706885D02*
X124710000Y-78749742D01*
X124710000Y-78749742D02*
X124695714Y-78778314D01*
X124695714Y-78778314D02*
X124681428Y-78792600D01*
X124681428Y-78792600D02*
X124652857Y-78806885D01*
X124652857Y-78806885D02*
X124538571Y-78806885D01*
X124538571Y-78806885D02*
X124538571Y-78506885D01*
X124538571Y-78506885D02*
X124638571Y-78506885D01*
X124638571Y-78506885D02*
X124667143Y-78521171D01*
X124667143Y-78521171D02*
X124681428Y-78535457D01*
X124681428Y-78535457D02*
X124695714Y-78564028D01*
X124695714Y-78564028D02*
X124695714Y-78592600D01*
X124695714Y-78592600D02*
X124681428Y-78621171D01*
X124681428Y-78621171D02*
X124667143Y-78635457D01*
X124667143Y-78635457D02*
X124638571Y-78649742D01*
X124638571Y-78649742D02*
X124538571Y-78649742D01*
X124824285Y-78721171D02*
X124967143Y-78721171D01*
X124795714Y-78806885D02*
X124895714Y-78506885D01*
X124895714Y-78506885D02*
X124995714Y-78806885D01*
X125052857Y-78506885D02*
X125224286Y-78506885D01*
X125138571Y-78806885D02*
X125138571Y-78506885D01*
X125281428Y-78506885D02*
X125452857Y-78506885D01*
X125367142Y-78806885D02*
X125367142Y-78506885D01*
X125709999Y-78806885D02*
X125538570Y-78806885D01*
X125624285Y-78806885D02*
X125624285Y-78506885D01*
X125624285Y-78506885D02*
X125595713Y-78549742D01*
X125595713Y-78549742D02*
X125567142Y-78578314D01*
X125567142Y-78578314D02*
X125538570Y-78592600D01*
D14*
X129308333Y-90943365D02*
X129247857Y-91003842D01*
X129247857Y-91003842D02*
X129066428Y-91064318D01*
X129066428Y-91064318D02*
X128945476Y-91064318D01*
X128945476Y-91064318D02*
X128764047Y-91003842D01*
X128764047Y-91003842D02*
X128643095Y-90882889D01*
X128643095Y-90882889D02*
X128582618Y-90761937D01*
X128582618Y-90761937D02*
X128522142Y-90520032D01*
X128522142Y-90520032D02*
X128522142Y-90338603D01*
X128522142Y-90338603D02*
X128582618Y-90096699D01*
X128582618Y-90096699D02*
X128643095Y-89975746D01*
X128643095Y-89975746D02*
X128764047Y-89854794D01*
X128764047Y-89854794D02*
X128945476Y-89794318D01*
X128945476Y-89794318D02*
X129066428Y-89794318D01*
X129066428Y-89794318D02*
X129247857Y-89854794D01*
X129247857Y-89854794D02*
X129308333Y-89915270D01*
X130457380Y-89794318D02*
X129852618Y-89794318D01*
X129852618Y-89794318D02*
X129792142Y-90399080D01*
X129792142Y-90399080D02*
X129852618Y-90338603D01*
X129852618Y-90338603D02*
X129973571Y-90278127D01*
X129973571Y-90278127D02*
X130275952Y-90278127D01*
X130275952Y-90278127D02*
X130396904Y-90338603D01*
X130396904Y-90338603D02*
X130457380Y-90399080D01*
X130457380Y-90399080D02*
X130517857Y-90520032D01*
X130517857Y-90520032D02*
X130517857Y-90822413D01*
X130517857Y-90822413D02*
X130457380Y-90943365D01*
X130457380Y-90943365D02*
X130396904Y-91003842D01*
X130396904Y-91003842D02*
X130275952Y-91064318D01*
X130275952Y-91064318D02*
X129973571Y-91064318D01*
X129973571Y-91064318D02*
X129852618Y-91003842D01*
X129852618Y-91003842D02*
X129792142Y-90943365D01*
X132188333Y-90933365D02*
X132127857Y-90993842D01*
X132127857Y-90993842D02*
X131946428Y-91054318D01*
X131946428Y-91054318D02*
X131825476Y-91054318D01*
X131825476Y-91054318D02*
X131644047Y-90993842D01*
X131644047Y-90993842D02*
X131523095Y-90872889D01*
X131523095Y-90872889D02*
X131462618Y-90751937D01*
X131462618Y-90751937D02*
X131402142Y-90510032D01*
X131402142Y-90510032D02*
X131402142Y-90328603D01*
X131402142Y-90328603D02*
X131462618Y-90086699D01*
X131462618Y-90086699D02*
X131523095Y-89965746D01*
X131523095Y-89965746D02*
X131644047Y-89844794D01*
X131644047Y-89844794D02*
X131825476Y-89784318D01*
X131825476Y-89784318D02*
X131946428Y-89784318D01*
X131946428Y-89784318D02*
X132127857Y-89844794D01*
X132127857Y-89844794D02*
X132188333Y-89905270D01*
X132611666Y-89784318D02*
X133458333Y-89784318D01*
X133458333Y-89784318D02*
X132914047Y-91054318D01*
D15*
%TO.C,SW1*%
X120601200Y-68411893D02*
X120601200Y-70734707D01*
X120601200Y-72278400D02*
X127611600Y-72278400D01*
X127611600Y-66868200D02*
X120601200Y-66868200D01*
X127611600Y-70734707D02*
X127611600Y-68411893D01*
D16*
X119204200Y-67698300D02*
G75*
G02*
X118442200Y-67698300I-381000J0D01*
G01*
X118442200Y-67698300D02*
G75*
G02*
X119204200Y-67698300I381000J0D01*
G01*
D17*
%TO.C,TP_3V3*%
X126760000Y-76370000D02*
X128160000Y-76370000D01*
X126760000Y-77770000D02*
X126760000Y-76370000D01*
X128160000Y-76370000D02*
X128160000Y-77770000D01*
X128160000Y-77770000D02*
X126760000Y-77770000D01*
D18*
%TO.C,R1*%
X135110000Y-80380000D02*
X135110000Y-80980000D01*
D17*
%TO.C,J2*%
X129400000Y-72270000D02*
X129400000Y-73520000D01*
X129700000Y-72570000D02*
X129700000Y-77290000D01*
X129700000Y-73880000D02*
X130310000Y-73880000D01*
X129700000Y-75180000D02*
X130310000Y-75180000D01*
X129700000Y-77290000D02*
X135820000Y-77290000D01*
X130310000Y-73180000D02*
X130310000Y-76680000D01*
X130310000Y-76680000D02*
X135210000Y-76680000D01*
X130650000Y-72270000D02*
X129400000Y-72270000D01*
X131160000Y-72370000D02*
X131160000Y-72570000D01*
X131460000Y-72370000D02*
X131160000Y-72370000D01*
X131460000Y-72470000D02*
X131160000Y-72470000D01*
X131460000Y-72570000D02*
X131460000Y-72370000D01*
X132260000Y-72570000D02*
X132260000Y-73180000D01*
X132260000Y-73180000D02*
X130310000Y-73180000D01*
X132660000Y-76180000D02*
X132860000Y-76180000D01*
X132660000Y-76680000D02*
X132660000Y-76180000D01*
X132760000Y-76680000D02*
X132760000Y-76180000D01*
X132860000Y-76180000D02*
X132860000Y-76680000D01*
X133260000Y-73180000D02*
X133260000Y-72570000D01*
X135210000Y-73180000D02*
X133260000Y-73180000D01*
X135210000Y-76680000D02*
X135210000Y-73180000D01*
X135820000Y-72570000D02*
X129700000Y-72570000D01*
X135820000Y-73880000D02*
X135210000Y-73880000D01*
X135820000Y-75180000D02*
X135210000Y-75180000D01*
X135820000Y-77290000D02*
X135820000Y-72570000D01*
%TO.C,TP1_motor2B1*%
X123710000Y-73320000D02*
X125110000Y-73320000D01*
X123710000Y-74720000D02*
X123710000Y-73320000D01*
X125110000Y-73320000D02*
X125110000Y-74720000D01*
X125110000Y-74720000D02*
X123710000Y-74720000D01*
%TO.C,TP1_motor2A1*%
X120660000Y-79420000D02*
X122060000Y-79420000D01*
X120660000Y-80820000D02*
X120660000Y-79420000D01*
X122060000Y-79420000D02*
X122060000Y-80820000D01*
X122060000Y-80820000D02*
X120660000Y-80820000D01*
D15*
%TO.C,U2*%
X128715200Y-92811300D02*
X128715200Y-94716300D01*
X129715960Y-92811300D02*
X128715200Y-92811300D01*
X129914039Y-94716300D02*
X130665961Y-94716300D01*
X131864800Y-92811300D02*
X130864040Y-92811300D01*
X131864800Y-94716300D02*
X131864800Y-92811300D01*
D17*
%TO.C,TP1_3.3v1*%
X120660000Y-73320000D02*
X122060000Y-73320000D01*
X120660000Y-74720000D02*
X120660000Y-73320000D01*
X122060000Y-73320000D02*
X122060000Y-74720000D01*
X122060000Y-74720000D02*
X120660000Y-74720000D01*
%TO.C,TP2_+BATT1*%
X123710000Y-76370000D02*
X125110000Y-76370000D01*
X123710000Y-77770000D02*
X123710000Y-76370000D01*
X125110000Y-76370000D02*
X125110000Y-77770000D01*
X125110000Y-77770000D02*
X123710000Y-77770000D01*
%TO.C,TP1_motor1B1*%
X120660000Y-76370000D02*
X122060000Y-76370000D01*
X120660000Y-77770000D02*
X120660000Y-76370000D01*
X122060000Y-76370000D02*
X122060000Y-77770000D01*
X122060000Y-77770000D02*
X120660000Y-77770000D01*
%TO.C,TP7_5V_1*%
X126760000Y-73320000D02*
X128160000Y-73320000D01*
X126760000Y-74720000D02*
X126760000Y-73320000D01*
X128160000Y-73320000D02*
X128160000Y-74720000D01*
X128160000Y-74720000D02*
X126760000Y-74720000D01*
%TO.C,TP_5V_2*%
X126760000Y-79420000D02*
X128160000Y-79420000D01*
X126760000Y-80820000D02*
X126760000Y-79420000D01*
X128160000Y-79420000D02*
X128160000Y-80820000D01*
X128160000Y-80820000D02*
X126760000Y-80820000D01*
D18*
%TO.C,R3*%
X135110000Y-85480000D02*
X135110000Y-86080000D01*
%TO.C,IC1*%
X120813000Y-81775000D02*
X122288000Y-81775000D01*
X122638000Y-82125000D02*
X126338000Y-82125000D01*
X122638000Y-87125000D02*
X122638000Y-82125000D01*
X126338000Y-82125000D02*
X126338000Y-87125000D01*
X126338000Y-87125000D02*
X122638000Y-87125000D01*
%TO.C,R2*%
X135110000Y-82930000D02*
X135110000Y-83530000D01*
D17*
%TO.C,J1*%
X114330000Y-72080000D02*
X115660000Y-72080000D01*
X114330000Y-73410000D02*
X114330000Y-72080000D01*
X114330000Y-74680000D02*
X114330000Y-92520000D01*
X114330000Y-74680000D02*
X116930000Y-74680000D01*
X114330000Y-92520000D02*
X119530000Y-92520000D01*
X116930000Y-72080000D02*
X119530000Y-72080000D01*
X116930000Y-74680000D02*
X116930000Y-72080000D01*
X119530000Y-72080000D02*
X119530000Y-92520000D01*
D15*
%TO.C,U1*%
X122285000Y-88075300D02*
X122285000Y-88237860D01*
X122285000Y-93272140D02*
X122285000Y-93434700D01*
X122285000Y-93434700D02*
X126526800Y-93434700D01*
X126526800Y-88075300D02*
X122285000Y-88075300D01*
X126526800Y-88237860D02*
X126526800Y-88075300D01*
X126526800Y-93434700D02*
X126526800Y-93272140D01*
D17*
%TO.C,TP6_+BATT1*%
X123710000Y-79420000D02*
X125110000Y-79420000D01*
X123710000Y-80820000D02*
X123710000Y-79420000D01*
X125110000Y-79420000D02*
X125110000Y-80820000D01*
X125110000Y-80820000D02*
X123710000Y-80820000D01*
%TD*%
%LPC*%
D19*
%TO.C,SW1*%
X121106398Y-67698300D03*
X127106402Y-67698300D03*
X121106398Y-71448300D03*
X127106402Y-71448300D03*
%TD*%
D20*
%TO.C,TP_3V3*%
X127460000Y-77070000D03*
%TD*%
D21*
%TO.C,R1*%
X134310000Y-80680000D03*
X135910000Y-80680000D03*
%TD*%
D22*
%TO.C,J2*%
X131760000Y-74380000D03*
D23*
X133760000Y-74380000D03*
%TD*%
D20*
%TO.C,TP1_motor2B1*%
X124410000Y-74020000D03*
%TD*%
D24*
%TO.C,R7*%
X130345000Y-86880000D03*
X131445000Y-86880000D03*
%TD*%
D20*
%TO.C,TP1_motor2A1*%
X121360000Y-80120000D03*
%TD*%
D24*
%TO.C,R6*%
X130835000Y-84780000D03*
X131935000Y-84780000D03*
%TD*%
D25*
%TO.C,U2*%
X129339999Y-94957600D03*
X131240001Y-94957600D03*
X130290000Y-92570000D03*
%TD*%
D20*
%TO.C,TP1_3.3v1*%
X121360000Y-74020000D03*
%TD*%
%TO.C,TP2_+BATT1*%
X124410000Y-77070000D03*
%TD*%
%TO.C,TP1_motor1B1*%
X121360000Y-77070000D03*
%TD*%
%TO.C,TP7_5V_1*%
X127460000Y-74020000D03*
%TD*%
%TO.C,TP_5V_2*%
X127460000Y-80120000D03*
%TD*%
D24*
%TO.C,R5*%
X130835000Y-82630000D03*
X131935000Y-82630000D03*
%TD*%
%TO.C,R4*%
X130835000Y-80480000D03*
X131935000Y-80480000D03*
%TD*%
D21*
%TO.C,R3*%
X134310000Y-85780000D03*
X135910000Y-85780000D03*
%TD*%
D26*
%TO.C,C1*%
X134624400Y-88469200D03*
X135730000Y-88469200D03*
%TD*%
D27*
%TO.C,IC1*%
X121550000Y-82350000D03*
X121550000Y-83000000D03*
X121550000Y-83650000D03*
X121550000Y-84300000D03*
X121550000Y-84950000D03*
X121550000Y-85600000D03*
X121550000Y-86250000D03*
X121550000Y-86900000D03*
X127426000Y-86900000D03*
X127426000Y-86250000D03*
X127426000Y-85600000D03*
X127426000Y-84950000D03*
X127426000Y-84300000D03*
X127426000Y-83650000D03*
X127426000Y-83000000D03*
X127426000Y-82350000D03*
%TD*%
D21*
%TO.C,R2*%
X134310000Y-83230000D03*
X135910000Y-83230000D03*
%TD*%
D26*
%TO.C,C6*%
X134624400Y-92790000D03*
X135730000Y-92790000D03*
%TD*%
D28*
%TO.C,J1*%
X115660000Y-73410000D03*
D29*
X118200000Y-73410000D03*
X115660000Y-75950000D03*
X118200000Y-75950000D03*
X115660000Y-78490000D03*
X118200000Y-78490000D03*
X115660000Y-81030000D03*
X118200000Y-81030000D03*
X115660000Y-83570000D03*
X118200000Y-83570000D03*
X115660000Y-86110000D03*
X118200000Y-86110000D03*
X115660000Y-88650000D03*
X118200000Y-88650000D03*
X115660000Y-91190000D03*
X118200000Y-91190000D03*
%TD*%
D30*
%TO.C,C3*%
X131945000Y-88500000D03*
X132865000Y-88500000D03*
%TD*%
D31*
%TO.C,U1*%
X121681750Y-88850000D03*
X121681750Y-90120000D03*
X121681750Y-91390000D03*
X121681750Y-92660000D03*
X127130050Y-92660000D03*
X127130050Y-91390000D03*
X127130050Y-90120000D03*
X127130050Y-88850000D03*
D32*
X124405900Y-90755000D03*
%TD*%
D26*
%TO.C,C2*%
X134624400Y-90629600D03*
X135730000Y-90629600D03*
%TD*%
D33*
%TO.C,C4*%
X129060000Y-88500000D03*
X129980000Y-88500000D03*
%TD*%
D20*
%TO.C,TP6_+BATT1*%
X124410000Y-80120000D03*
%TD*%
D33*
%TO.C,C5*%
X129060000Y-90490000D03*
X129980000Y-90490000D03*
%TD*%
D34*
%TO.C,C7*%
X131940000Y-90480000D03*
X132860000Y-90480000D03*
%TD*%
D35*
X124624000Y-86892500D03*
X130812800Y-90128500D03*
X124410000Y-78334000D03*
X131760400Y-91294900D03*
X128837600Y-85227600D03*
X124480200Y-88104100D03*
X120350300Y-77147400D03*
X123406900Y-74002500D03*
X127438200Y-79109500D03*
X128424600Y-89288000D03*
X129669500Y-83164600D03*
X128395600Y-91393300D03*
X130131200Y-84076200D03*
X129792100Y-89641000D03*
X127292700Y-81596300D03*
X124730200Y-81219400D03*
X128261700Y-79183100D03*
X132991700Y-87655800D03*
X128563000Y-92569100D03*
%LPD*%
M02*
