%TF.GenerationSoftware,KiCad,Pcbnew,8.0.0*%
%TF.CreationDate,2024-04-03T23:18:40+02:00*%
%TF.ProjectId,PowerSubsystem,506f7765-7253-4756-9273-797374656d2e,rev?*%
%TF.SameCoordinates,Original*%
%TF.FileFunction,Copper,L2,Bot*%
%TF.FilePolarity,Positive*%
%FSLAX46Y46*%
G04 Gerber Fmt 4.6, Leading zero omitted, Abs format (unit mm)*
G04 Created by KiCad (PCBNEW 8.0.0) date 2024-04-03 23:18:40*
%MOMM*%
%LPD*%
G01*
G04 APERTURE LIST*
G04 Aperture macros list*
%AMRoundRect*
0 Rectangle with rounded corners*
0 $1 Rounding radius*
0 $2 $3 $4 $5 $6 $7 $8 $9 X,Y pos of 4 corners*
0 Add a 4 corners polygon primitive as box body*
4,1,4,$2,$3,$4,$5,$6,$7,$8,$9,$2,$3,0*
0 Add four circle primitives for the rounded corners*
1,1,$1+$1,$2,$3*
1,1,$1+$1,$4,$5*
1,1,$1+$1,$6,$7*
1,1,$1+$1,$8,$9*
0 Add four rect primitives between the rounded corners*
20,1,$1+$1,$2,$3,$4,$5,0*
20,1,$1+$1,$4,$5,$6,$7,0*
20,1,$1+$1,$6,$7,$8,$9,0*
20,1,$1+$1,$8,$9,$2,$3,0*%
G04 Aperture macros list end*
%TA.AperFunction,ComponentPad*%
%ADD10RoundRect,0.250000X-0.350000X-0.625000X0.350000X-0.625000X0.350000X0.625000X-0.350000X0.625000X0*%
%TD*%
%TA.AperFunction,ComponentPad*%
%ADD11O,1.200000X1.750000*%
%TD*%
%TA.AperFunction,ComponentPad*%
%ADD12R,1.700000X1.700000*%
%TD*%
%TA.AperFunction,ComponentPad*%
%ADD13O,1.700000X1.700000*%
%TD*%
%TA.AperFunction,ViaPad*%
%ADD14C,0.600000*%
%TD*%
%TA.AperFunction,Conductor*%
%ADD15C,0.200000*%
%TD*%
G04 APERTURE END LIST*
D10*
%TO.P,J2,1,Pin_1*%
%TO.N,/+BATT*%
X131760000Y-74380000D03*
D11*
%TO.P,J2,2,Pin_2*%
%TO.N,GND*%
X133760000Y-74380000D03*
%TD*%
D12*
%TO.P,J1,1,Pin_1*%
%TO.N,/Motor1A*%
X115660000Y-73410000D03*
D13*
%TO.P,J1,2,Pin_2*%
%TO.N,/PWM1*%
X118200000Y-73410000D03*
%TO.P,J1,3,Pin_3*%
%TO.N,/Motor1B*%
X115660000Y-75950000D03*
%TO.P,J1,4,Pin_4*%
%TO.N,/PWM2*%
X118200000Y-75950000D03*
%TO.P,J1,5,Pin_5*%
%TO.N,GND*%
X115660000Y-78490000D03*
%TO.P,J1,6,Pin_6*%
X118200000Y-78490000D03*
%TO.P,J1,7,Pin_7*%
%TO.N,/+BATT*%
X115660000Y-81030000D03*
%TO.P,J1,8,Pin_8*%
%TO.N,GND*%
X118200000Y-81030000D03*
%TO.P,J1,9,Pin_9*%
%TO.N,/PD7*%
X115660000Y-83570000D03*
%TO.P,J1,10,Pin_10*%
%TO.N,/BATT_ADC*%
X118200000Y-83570000D03*
%TO.P,J1,11,Pin_11*%
%TO.N,VCC1*%
X115660000Y-86110000D03*
%TO.P,J1,12,Pin_12*%
%TO.N,VCC2*%
X118200000Y-86110000D03*
%TO.P,J1,13,Pin_13*%
%TO.N,/Motor2B*%
X115660000Y-88650000D03*
%TO.P,J1,14,Pin_14*%
%TO.N,/PWM3*%
X118200000Y-88650000D03*
%TO.P,J1,15,Pin_15*%
%TO.N,/Motor2A*%
X115660000Y-91190000D03*
%TO.P,J1,16,Pin_16*%
%TO.N,/PWM4*%
X118200000Y-91190000D03*
%TD*%
D14*
%TO.N,Net-(U2-VOUT)*%
X124624000Y-86892500D03*
X130812800Y-90128500D03*
%TO.N,/+BATT*%
X124410000Y-78334000D03*
%TO.N,Net-(IC1-VCP)*%
X131760400Y-91294900D03*
X128837600Y-85227600D03*
%TO.N,/PWM3*%
X124480200Y-88104100D03*
%TO.N,/Motor1B*%
X120350300Y-77147400D03*
%TO.N,/Motor2B*%
X123406900Y-74002500D03*
%TO.N,/BATT_ADC*%
X127438200Y-79109500D03*
%TO.N,Net-(U1-\u002ACHRG)*%
X128424600Y-89288000D03*
X129669500Y-83164600D03*
%TO.N,Net-(U1-\u002ASTDBY)*%
X128395600Y-91393300D03*
X130131200Y-84076200D03*
%TO.N,VCC2*%
X129792100Y-89641000D03*
X127292700Y-81596300D03*
%TO.N,GND*%
X124730200Y-81219400D03*
%TO.N,VCC1*%
X128261700Y-79183100D03*
%TO.N,Net-(U1-CE)*%
X132991700Y-87655800D03*
X128563000Y-92569100D03*
%TD*%
D15*
%TO.N,Net-(U2-VOUT)*%
X125514900Y-87932400D02*
X125514900Y-87934500D01*
X128625500Y-90349400D02*
X128627000Y-90347900D01*
X124624000Y-87041500D02*
X125514900Y-87932400D01*
X130593400Y-90347900D02*
X130812800Y-90128500D01*
X127785700Y-90203200D02*
X127930400Y-90347900D01*
X128066200Y-90347900D02*
X128067700Y-90349400D01*
X128067700Y-90349400D02*
X128625500Y-90349400D01*
X127930400Y-90347900D02*
X128066200Y-90347900D01*
X125514900Y-87934500D02*
X127340700Y-89760300D01*
X127422700Y-89842300D02*
X127783600Y-90203200D01*
X127340900Y-89760300D02*
X127422700Y-89842100D01*
X127340700Y-89760300D02*
X127340900Y-89760300D01*
X124624000Y-86892500D02*
X124624000Y-87041500D01*
X128627000Y-90347900D02*
X130593400Y-90347900D01*
X127783600Y-90203200D02*
X127785700Y-90203200D01*
X127422700Y-89842100D02*
X127422700Y-89842300D01*
%TO.N,/+BATT*%
X128364000Y-74380000D02*
X124410000Y-78334000D01*
X116811700Y-80741900D02*
X116811700Y-81030000D01*
X115660000Y-81030000D02*
X116811700Y-81030000D01*
X117724200Y-79829400D02*
X116811700Y-80741900D01*
X124410000Y-78334000D02*
X122914600Y-79829400D01*
X122914600Y-79829400D02*
X117724200Y-79829400D01*
X131760000Y-74380000D02*
X128364000Y-74380000D01*
%TO.N,Net-(IC1-VCP)*%
X131760400Y-88150400D02*
X131760400Y-91294900D01*
X128837600Y-85227600D02*
X131760400Y-88150400D01*
%TO.N,/PWM3*%
X119897600Y-88104100D02*
X119351700Y-88650000D01*
X118200000Y-88650000D02*
X119351700Y-88650000D01*
X124480200Y-88104100D02*
X119897600Y-88104100D01*
%TO.N,/Motor1B*%
X117721200Y-77147400D02*
X120350300Y-77147400D01*
X116811700Y-76237900D02*
X117721200Y-77147400D01*
X116811700Y-75950000D02*
X116811700Y-76237900D01*
X115660000Y-75950000D02*
X116811700Y-75950000D01*
%TO.N,/Motor2B*%
X115253300Y-74678200D02*
X122731200Y-74678200D01*
X115660000Y-87498300D02*
X115372000Y-87498300D01*
X114508300Y-86634600D02*
X114508300Y-75423200D01*
X115660000Y-88650000D02*
X115660000Y-87498300D01*
X114508300Y-75423200D02*
X115253300Y-74678200D01*
X115372000Y-87498300D02*
X114508300Y-86634600D01*
X122731200Y-74678200D02*
X123406900Y-74002500D01*
%TO.N,/BATT_ADC*%
X127438200Y-79393600D02*
X123261800Y-83570000D01*
X123261800Y-83570000D02*
X119351700Y-83570000D01*
X127438200Y-79109500D02*
X127438200Y-79393600D01*
X118200000Y-83570000D02*
X119351700Y-83570000D01*
%TO.N,Net-(U1-\u002ACHRG)*%
X128235800Y-84598300D02*
X128235800Y-89099200D01*
X129669500Y-83164600D02*
X128235800Y-84598300D01*
X128235800Y-89099200D02*
X128424600Y-89288000D01*
%TO.N,Net-(U1-\u002ASTDBY)*%
X128395600Y-91393300D02*
X128919400Y-91917100D01*
X132012400Y-91917100D02*
X132375300Y-91554200D01*
X132375300Y-91554200D02*
X132375300Y-86320300D01*
X128919400Y-91917100D02*
X132012400Y-91917100D01*
X132375300Y-86320300D02*
X130131200Y-84076200D01*
%TO.N,VCC2*%
X129514400Y-89918700D02*
X129792100Y-89641000D01*
X125916600Y-86110000D02*
X119351700Y-86110000D01*
X118200000Y-86110000D02*
X119351700Y-86110000D01*
X127292700Y-84733900D02*
X125916600Y-86110000D01*
X125916600Y-86110000D02*
X125916600Y-87693500D01*
X127292700Y-81596300D02*
X127292700Y-84733900D01*
X125916600Y-87693500D02*
X128141800Y-89918700D01*
X128141800Y-89918700D02*
X129514400Y-89918700D01*
%TO.N,GND*%
X128369000Y-77258600D02*
X124569200Y-81058400D01*
X118200000Y-81030000D02*
X119351700Y-81030000D01*
X119380100Y-81058400D02*
X119351700Y-81030000D01*
X133760000Y-74380000D02*
X132858300Y-74380000D01*
X124569200Y-81058400D02*
X124730200Y-81219400D01*
X132858300Y-75056300D02*
X130656000Y-77258600D01*
X124569200Y-81058400D02*
X119380100Y-81058400D01*
X130656000Y-77258600D02*
X128369000Y-77258600D01*
X132858300Y-74380000D02*
X132858300Y-75056300D01*
%TO.N,VCC1*%
X116811700Y-86110000D02*
X116811700Y-85822000D01*
X117675400Y-84958300D02*
X122486500Y-84958300D01*
X122486500Y-84958300D02*
X128261700Y-79183100D01*
X116811700Y-85822000D02*
X117675400Y-84958300D01*
X115660000Y-86110000D02*
X116811700Y-86110000D01*
%TO.N,Net-(U1-CE)*%
X131935700Y-92569100D02*
X132991700Y-91513100D01*
X128563000Y-92569100D02*
X131935700Y-92569100D01*
X132991700Y-91513100D02*
X132991700Y-87655800D01*
%TD*%
%TA.AperFunction,Conductor*%
%TO.N,GND*%
G36*
X118393039Y-80449585D02*
G01*
X118438794Y-80502389D01*
X118450000Y-80553900D01*
X118450000Y-80596988D01*
X118392993Y-80564075D01*
X118265826Y-80530000D01*
X118134174Y-80530000D01*
X118007007Y-80564075D01*
X117950000Y-80596988D01*
X117950000Y-80553900D01*
X117969685Y-80486861D01*
X118022489Y-80441106D01*
X118074000Y-80429900D01*
X118326000Y-80429900D01*
X118393039Y-80449585D01*
G37*
%TD.AperFunction*%
%TA.AperFunction,Conductor*%
G36*
X118450000Y-79104900D02*
G01*
X118430315Y-79171939D01*
X118377511Y-79217694D01*
X118326000Y-79228900D01*
X118074000Y-79228900D01*
X118006961Y-79209215D01*
X117961206Y-79156411D01*
X117950000Y-79104900D01*
X117950000Y-78923012D01*
X118007007Y-78955925D01*
X118134174Y-78990000D01*
X118265826Y-78990000D01*
X118392993Y-78955925D01*
X118450000Y-78923012D01*
X118450000Y-79104900D01*
G37*
%TD.AperFunction*%
%TA.AperFunction,Conductor*%
G36*
X117734075Y-78297007D02*
G01*
X117700000Y-78424174D01*
X117700000Y-78555826D01*
X117734075Y-78682993D01*
X117766988Y-78740000D01*
X116093012Y-78740000D01*
X116125925Y-78682993D01*
X116160000Y-78555826D01*
X116160000Y-78424174D01*
X116125925Y-78297007D01*
X116093012Y-78240000D01*
X117766988Y-78240000D01*
X117734075Y-78297007D01*
G37*
%TD.AperFunction*%
%TA.AperFunction,Conductor*%
G36*
X137136792Y-65606005D02*
G01*
X137203687Y-65626174D01*
X137249059Y-65679308D01*
X137259895Y-65729923D01*
X137279096Y-95730876D01*
X137259454Y-95797928D01*
X137206680Y-95843716D01*
X137154198Y-95854952D01*
X113542676Y-95683923D01*
X113475781Y-95663753D01*
X113430409Y-95610619D01*
X113419594Y-95562130D01*
X113390534Y-93927453D01*
X113390514Y-93924938D01*
X113395189Y-92061396D01*
X113402540Y-89130518D01*
X113408602Y-86713654D01*
X113907798Y-86713654D01*
X113912228Y-86730185D01*
X113948723Y-86866385D01*
X113948724Y-86866387D01*
X113948723Y-86866387D01*
X113963801Y-86892501D01*
X113963802Y-86892503D01*
X114027775Y-87003309D01*
X114027781Y-87003317D01*
X114146649Y-87122185D01*
X114146655Y-87122190D01*
X114624602Y-87600137D01*
X114658087Y-87661460D01*
X114653103Y-87731152D01*
X114624615Y-87775487D01*
X114621506Y-87778596D01*
X114485965Y-87972169D01*
X114485964Y-87972171D01*
X114386098Y-88186335D01*
X114386094Y-88186344D01*
X114324938Y-88414586D01*
X114324936Y-88414596D01*
X114304341Y-88649999D01*
X114304341Y-88650000D01*
X114324936Y-88885403D01*
X114324938Y-88885413D01*
X114386094Y-89113655D01*
X114386096Y-89113659D01*
X114386097Y-89113663D01*
X114449906Y-89250501D01*
X114485965Y-89327830D01*
X114485967Y-89327834D01*
X114594281Y-89482521D01*
X114621501Y-89521396D01*
X114621506Y-89521402D01*
X114788597Y-89688493D01*
X114788603Y-89688498D01*
X114974158Y-89818425D01*
X115017783Y-89873002D01*
X115024977Y-89942500D01*
X114993454Y-90004855D01*
X114974158Y-90021575D01*
X114788597Y-90151505D01*
X114621505Y-90318597D01*
X114485965Y-90512169D01*
X114485964Y-90512171D01*
X114386098Y-90726335D01*
X114386094Y-90726344D01*
X114324938Y-90954586D01*
X114324936Y-90954596D01*
X114304341Y-91189999D01*
X114304341Y-91190000D01*
X114324936Y-91425403D01*
X114324938Y-91425413D01*
X114386094Y-91653655D01*
X114386096Y-91653659D01*
X114386097Y-91653663D01*
X114390000Y-91662032D01*
X114485965Y-91867830D01*
X114485967Y-91867834D01*
X114505383Y-91895562D01*
X114621505Y-92061401D01*
X114788599Y-92228495D01*
X114885384Y-92296265D01*
X114982165Y-92364032D01*
X114982167Y-92364033D01*
X114982170Y-92364035D01*
X115196337Y-92463903D01*
X115424592Y-92525063D01*
X115612918Y-92541539D01*
X115659999Y-92545659D01*
X115660000Y-92545659D01*
X115660001Y-92545659D01*
X115699234Y-92542226D01*
X115895408Y-92525063D01*
X116123663Y-92463903D01*
X116337830Y-92364035D01*
X116531401Y-92228495D01*
X116698495Y-92061401D01*
X116828425Y-91875842D01*
X116883002Y-91832217D01*
X116952500Y-91825023D01*
X117014855Y-91856546D01*
X117031575Y-91875842D01*
X117161500Y-92061395D01*
X117161505Y-92061401D01*
X117328599Y-92228495D01*
X117425384Y-92296265D01*
X117522165Y-92364032D01*
X117522167Y-92364033D01*
X117522170Y-92364035D01*
X117736337Y-92463903D01*
X117964592Y-92525063D01*
X118152918Y-92541539D01*
X118199999Y-92545659D01*
X118200000Y-92545659D01*
X118200001Y-92545659D01*
X118239234Y-92542226D01*
X118435408Y-92525063D01*
X118663663Y-92463903D01*
X118877830Y-92364035D01*
X119071401Y-92228495D01*
X119238495Y-92061401D01*
X119374035Y-91867830D01*
X119473903Y-91653663D01*
X119535063Y-91425408D01*
X119555659Y-91190000D01*
X119535063Y-90954592D01*
X119473903Y-90726337D01*
X119374035Y-90512171D01*
X119368425Y-90504158D01*
X119238494Y-90318597D01*
X119071402Y-90151506D01*
X119071396Y-90151501D01*
X118885842Y-90021575D01*
X118842217Y-89966998D01*
X118835023Y-89897500D01*
X118866546Y-89835145D01*
X118885842Y-89818425D01*
X118908026Y-89802891D01*
X119071401Y-89688495D01*
X119238495Y-89521401D01*
X119374035Y-89327830D01*
X119382707Y-89309233D01*
X119428879Y-89256793D01*
X119462990Y-89241863D01*
X119583485Y-89209577D01*
X119637732Y-89178257D01*
X119720416Y-89130520D01*
X119832220Y-89018716D01*
X119832220Y-89018714D01*
X119842421Y-89008514D01*
X119842424Y-89008509D01*
X120110017Y-88740916D01*
X120171339Y-88707434D01*
X120197697Y-88704600D01*
X123897788Y-88704600D01*
X123964827Y-88724285D01*
X123975103Y-88731655D01*
X123977936Y-88733914D01*
X123977938Y-88733916D01*
X124130678Y-88829889D01*
X124300945Y-88889468D01*
X124300950Y-88889469D01*
X124480196Y-88909665D01*
X124480200Y-88909665D01*
X124480204Y-88909665D01*
X124659449Y-88889469D01*
X124659452Y-88889468D01*
X124659455Y-88889468D01*
X124829722Y-88829889D01*
X124982462Y-88733916D01*
X125110016Y-88606362D01*
X125115080Y-88598301D01*
X125167413Y-88552010D01*
X125236467Y-88541360D01*
X125300316Y-88569734D01*
X125307756Y-88576591D01*
X126855839Y-90124674D01*
X126855849Y-90124685D01*
X126860179Y-90129015D01*
X126860180Y-90129016D01*
X126942180Y-90211016D01*
X127053985Y-90322821D01*
X127414880Y-90683717D01*
X127417458Y-90685695D01*
X127429657Y-90696393D01*
X127561684Y-90828420D01*
X127628842Y-90867193D01*
X127677058Y-90917760D01*
X127690282Y-90986367D01*
X127671841Y-91040547D01*
X127669809Y-91043780D01*
X127610233Y-91214037D01*
X127610230Y-91214050D01*
X127590035Y-91393296D01*
X127590035Y-91393303D01*
X127610230Y-91572549D01*
X127610231Y-91572554D01*
X127669811Y-91742823D01*
X127765784Y-91895562D01*
X127864755Y-91994533D01*
X127898240Y-92055856D01*
X127893256Y-92125548D01*
X127882069Y-92148185D01*
X127837211Y-92219577D01*
X127777631Y-92389845D01*
X127777630Y-92389850D01*
X127757435Y-92569096D01*
X127757435Y-92569103D01*
X127777630Y-92748349D01*
X127777631Y-92748354D01*
X127837211Y-92918623D01*
X127933184Y-93071362D01*
X128060738Y-93198916D01*
X128213478Y-93294889D01*
X128383745Y-93354468D01*
X128383750Y-93354469D01*
X128562996Y-93374665D01*
X128563000Y-93374665D01*
X128563004Y-93374665D01*
X128742249Y-93354469D01*
X128742252Y-93354468D01*
X128742255Y-93354468D01*
X128912522Y-93294889D01*
X129065262Y-93198916D01*
X129065267Y-93198910D01*
X129068097Y-93196655D01*
X129070275Y-93195765D01*
X129071158Y-93195211D01*
X129071255Y-93195365D01*
X129132783Y-93170245D01*
X129145412Y-93169600D01*
X131849031Y-93169600D01*
X131849047Y-93169601D01*
X131856643Y-93169601D01*
X132014754Y-93169601D01*
X132014757Y-93169601D01*
X132167485Y-93128677D01*
X132217604Y-93099739D01*
X132304416Y-93049620D01*
X132416220Y-92937816D01*
X132416220Y-92937814D01*
X132426428Y-92927607D01*
X132426429Y-92927604D01*
X133472220Y-91881816D01*
X133551277Y-91744884D01*
X133592201Y-91592157D01*
X133592201Y-91434042D01*
X133592201Y-91426447D01*
X133592200Y-91426429D01*
X133592200Y-88238212D01*
X133611885Y-88171173D01*
X133619255Y-88160897D01*
X133621510Y-88158067D01*
X133621516Y-88158062D01*
X133717489Y-88005322D01*
X133777068Y-87835055D01*
X133777069Y-87835049D01*
X133797265Y-87655803D01*
X133797265Y-87655796D01*
X133777069Y-87476550D01*
X133777068Y-87476545D01*
X133757017Y-87419243D01*
X133717489Y-87306278D01*
X133621516Y-87153538D01*
X133493962Y-87025984D01*
X133457875Y-87003309D01*
X133341223Y-86930011D01*
X133170952Y-86870431D01*
X133085915Y-86860849D01*
X133021502Y-86833782D01*
X132981947Y-86776187D01*
X132975800Y-86737629D01*
X132975800Y-86409360D01*
X132975801Y-86409347D01*
X132975801Y-86241244D01*
X132934876Y-86088514D01*
X132934873Y-86088509D01*
X132855824Y-85951590D01*
X132855818Y-85951582D01*
X130961900Y-84057665D01*
X130928415Y-83996342D01*
X130926363Y-83983886D01*
X130916568Y-83896945D01*
X130856989Y-83726678D01*
X130761016Y-83573938D01*
X130633462Y-83446384D01*
X130521856Y-83376257D01*
X130475567Y-83323924D01*
X130464610Y-83257382D01*
X130475065Y-83164600D01*
X130472977Y-83146065D01*
X130454869Y-82985350D01*
X130454868Y-82985345D01*
X130448332Y-82966666D01*
X130395289Y-82815078D01*
X130299316Y-82662338D01*
X130171762Y-82534784D01*
X130166537Y-82531501D01*
X130019023Y-82438811D01*
X129848754Y-82379231D01*
X129848749Y-82379230D01*
X129669504Y-82359035D01*
X129669496Y-82359035D01*
X129490250Y-82379230D01*
X129490245Y-82379231D01*
X129319976Y-82438811D01*
X129167237Y-82534784D01*
X129039684Y-82662337D01*
X128943710Y-82815078D01*
X128884130Y-82985350D01*
X128874337Y-83072268D01*
X128847270Y-83136682D01*
X128838798Y-83146065D01*
X128104881Y-83879983D01*
X128043558Y-83913468D01*
X127973867Y-83908484D01*
X127917933Y-83866612D01*
X127893516Y-83801148D01*
X127893200Y-83792302D01*
X127893200Y-82178712D01*
X127912885Y-82111673D01*
X127920255Y-82101397D01*
X127922510Y-82098567D01*
X127922516Y-82098562D01*
X128018489Y-81945822D01*
X128078068Y-81775555D01*
X128084845Y-81715406D01*
X128098265Y-81596303D01*
X128098265Y-81596296D01*
X128078069Y-81417050D01*
X128078068Y-81417045D01*
X128018488Y-81246776D01*
X127922515Y-81094037D01*
X127794960Y-80966482D01*
X127639571Y-80868844D01*
X127593281Y-80816510D01*
X127582633Y-80747456D01*
X127611008Y-80683608D01*
X127617851Y-80676182D01*
X128280235Y-80013798D01*
X128341556Y-79980315D01*
X128354011Y-79978263D01*
X128440955Y-79968468D01*
X128611222Y-79908889D01*
X128763962Y-79812916D01*
X128891516Y-79685362D01*
X128987489Y-79532622D01*
X129047068Y-79362355D01*
X129047069Y-79362349D01*
X129067265Y-79183103D01*
X129067265Y-79183096D01*
X129047069Y-79003850D01*
X129047068Y-79003845D01*
X129021314Y-78930245D01*
X128987489Y-78833578D01*
X128891516Y-78680838D01*
X128763962Y-78553284D01*
X128611223Y-78457311D01*
X128440954Y-78397731D01*
X128440949Y-78397730D01*
X128261704Y-78377535D01*
X128261696Y-78377535D01*
X128082450Y-78397730D01*
X128082445Y-78397731D01*
X127963839Y-78439234D01*
X127894060Y-78442795D01*
X127856912Y-78427186D01*
X127787722Y-78383711D01*
X127617454Y-78324131D01*
X127617449Y-78324130D01*
X127438204Y-78303935D01*
X127438196Y-78303935D01*
X127258950Y-78324130D01*
X127258945Y-78324131D01*
X127088676Y-78383711D01*
X126935937Y-78479684D01*
X126808384Y-78607237D01*
X126712411Y-78759976D01*
X126652831Y-78930245D01*
X126652830Y-78930250D01*
X126632635Y-79109496D01*
X126632635Y-79109504D01*
X126650294Y-79266243D01*
X126638239Y-79335065D01*
X126614755Y-79367807D01*
X123049384Y-82933181D01*
X122988061Y-82966666D01*
X122961703Y-82969500D01*
X119489091Y-82969500D01*
X119422052Y-82949815D01*
X119376711Y-82897909D01*
X119374037Y-82892175D01*
X119374034Y-82892170D01*
X119238494Y-82698597D01*
X119071402Y-82531506D01*
X119071401Y-82531505D01*
X118885405Y-82401269D01*
X118841781Y-82346692D01*
X118834588Y-82277193D01*
X118866110Y-82214839D01*
X118885405Y-82198119D01*
X119071082Y-82068105D01*
X119238105Y-81901082D01*
X119373600Y-81707578D01*
X119473429Y-81493492D01*
X119473432Y-81493486D01*
X119530636Y-81280000D01*
X118633012Y-81280000D01*
X118665925Y-81222993D01*
X118700000Y-81095826D01*
X118700000Y-80964174D01*
X118665925Y-80837007D01*
X118633012Y-80780000D01*
X119530636Y-80780000D01*
X119530635Y-80779999D01*
X119478652Y-80585994D01*
X119480315Y-80516144D01*
X119519477Y-80458281D01*
X119583706Y-80430777D01*
X119598427Y-80429900D01*
X122827931Y-80429900D01*
X122827947Y-80429901D01*
X122835543Y-80429901D01*
X122993654Y-80429901D01*
X122993657Y-80429901D01*
X123146385Y-80388977D01*
X123210134Y-80352171D01*
X123283316Y-80309920D01*
X123395120Y-80198116D01*
X123395120Y-80198114D01*
X123405324Y-80187911D01*
X123405328Y-80187906D01*
X124428535Y-79164698D01*
X124489856Y-79131215D01*
X124502311Y-79129163D01*
X124589255Y-79119368D01*
X124759522Y-79059789D01*
X124912262Y-78963816D01*
X125039816Y-78836262D01*
X125135789Y-78683522D01*
X125195368Y-78513255D01*
X125205161Y-78426329D01*
X125232226Y-78361918D01*
X125240690Y-78352543D01*
X128576416Y-75016819D01*
X128637739Y-74983334D01*
X128664097Y-74980500D01*
X130539911Y-74980500D01*
X130606950Y-75000185D01*
X130652705Y-75052989D01*
X130663269Y-75091898D01*
X130670001Y-75157797D01*
X130670001Y-75157799D01*
X130710064Y-75278700D01*
X130725186Y-75324334D01*
X130817288Y-75473656D01*
X130941344Y-75597712D01*
X131090666Y-75689814D01*
X131257203Y-75744999D01*
X131359991Y-75755500D01*
X132160008Y-75755499D01*
X132160016Y-75755498D01*
X132160019Y-75755498D01*
X132216302Y-75749748D01*
X132262797Y-75744999D01*
X132429334Y-75689814D01*
X132578656Y-75597712D01*
X132702712Y-75473656D01*
X132742581Y-75409016D01*
X132794525Y-75362294D01*
X132863488Y-75351071D01*
X132927570Y-75378914D01*
X132935799Y-75386434D01*
X133043397Y-75494032D01*
X133183475Y-75595804D01*
X133337744Y-75674408D01*
X133502415Y-75727914D01*
X133502414Y-75727914D01*
X133509999Y-75729115D01*
X133510000Y-75729114D01*
X133510000Y-74660330D01*
X133529745Y-74680075D01*
X133615255Y-74729444D01*
X133710630Y-74755000D01*
X133809370Y-74755000D01*
X133904745Y-74729444D01*
X133990255Y-74680075D01*
X134010000Y-74660330D01*
X134010000Y-75729115D01*
X134017584Y-75727914D01*
X134182255Y-75674408D01*
X134336524Y-75595804D01*
X134476602Y-75494032D01*
X134599032Y-75371602D01*
X134700804Y-75231524D01*
X134779408Y-75077257D01*
X134832914Y-74912584D01*
X134860000Y-74741571D01*
X134860000Y-74630000D01*
X134040330Y-74630000D01*
X134060075Y-74610255D01*
X134109444Y-74524745D01*
X134135000Y-74429370D01*
X134135000Y-74330630D01*
X134109444Y-74235255D01*
X134060075Y-74149745D01*
X134040330Y-74130000D01*
X134860000Y-74130000D01*
X134860000Y-74018428D01*
X134832914Y-73847415D01*
X134779408Y-73682742D01*
X134700804Y-73528475D01*
X134599032Y-73388397D01*
X134476602Y-73265967D01*
X134336524Y-73164195D01*
X134182257Y-73085591D01*
X134017589Y-73032087D01*
X134017581Y-73032085D01*
X134010000Y-73030884D01*
X134010000Y-74099670D01*
X133990255Y-74079925D01*
X133904745Y-74030556D01*
X133809370Y-74005000D01*
X133710630Y-74005000D01*
X133615255Y-74030556D01*
X133529745Y-74079925D01*
X133510000Y-74099670D01*
X133510000Y-73030884D01*
X133509999Y-73030884D01*
X133502418Y-73032085D01*
X133502410Y-73032087D01*
X133337742Y-73085591D01*
X133183475Y-73164195D01*
X133043401Y-73265964D01*
X132935799Y-73373566D01*
X132874476Y-73407050D01*
X132804784Y-73402066D01*
X132748851Y-73360194D01*
X132742585Y-73350988D01*
X132702712Y-73286344D01*
X132578656Y-73162288D01*
X132429334Y-73070186D01*
X132262797Y-73015001D01*
X132262795Y-73015000D01*
X132160010Y-73004500D01*
X131359998Y-73004500D01*
X131359980Y-73004501D01*
X131257203Y-73015000D01*
X131257200Y-73015001D01*
X131090668Y-73070185D01*
X131090663Y-73070187D01*
X130941342Y-73162289D01*
X130817289Y-73286342D01*
X130725187Y-73435663D01*
X130725185Y-73435668D01*
X130670001Y-73602204D01*
X130670000Y-73602205D01*
X130663268Y-73668103D01*
X130636871Y-73732795D01*
X130579690Y-73772946D01*
X130539910Y-73779500D01*
X128284940Y-73779500D01*
X128244019Y-73790464D01*
X128244019Y-73790465D01*
X128206751Y-73800451D01*
X128132214Y-73820423D01*
X128132209Y-73820426D01*
X127995290Y-73899475D01*
X127995282Y-73899481D01*
X127883478Y-74011286D01*
X124391465Y-77503298D01*
X124330142Y-77536783D01*
X124317668Y-77538837D01*
X124230750Y-77548630D01*
X124060478Y-77608210D01*
X123907737Y-77704184D01*
X123780184Y-77831737D01*
X123684210Y-77984478D01*
X123624630Y-78154750D01*
X123614837Y-78241668D01*
X123587770Y-78306082D01*
X123579298Y-78315465D01*
X122702184Y-79192581D01*
X122640861Y-79226066D01*
X122614503Y-79228900D01*
X119539647Y-79228900D01*
X119472608Y-79209215D01*
X119426853Y-79156411D01*
X119416909Y-79087253D01*
X119427265Y-79052496D01*
X119473428Y-78953497D01*
X119473432Y-78953486D01*
X119530636Y-78740000D01*
X118633012Y-78740000D01*
X118665925Y-78682993D01*
X118700000Y-78555826D01*
X118700000Y-78424174D01*
X118665925Y-78297007D01*
X118633012Y-78240000D01*
X119530636Y-78240000D01*
X119530635Y-78239999D01*
X119473432Y-78026513D01*
X119473429Y-78026507D01*
X119425772Y-77924305D01*
X119415280Y-77855228D01*
X119443800Y-77791444D01*
X119502276Y-77753204D01*
X119538154Y-77747900D01*
X119767888Y-77747900D01*
X119834927Y-77767585D01*
X119845203Y-77774955D01*
X119848036Y-77777214D01*
X119848038Y-77777216D01*
X120000778Y-77873189D01*
X120146859Y-77924305D01*
X120171045Y-77932768D01*
X120171050Y-77932769D01*
X120350296Y-77952965D01*
X120350300Y-77952965D01*
X120350304Y-77952965D01*
X120529549Y-77932769D01*
X120529552Y-77932768D01*
X120529555Y-77932768D01*
X120699822Y-77873189D01*
X120852562Y-77777216D01*
X120980116Y-77649662D01*
X121076089Y-77496922D01*
X121135668Y-77326655D01*
X121138034Y-77305659D01*
X121155865Y-77147403D01*
X121155865Y-77147396D01*
X121135669Y-76968150D01*
X121135668Y-76968145D01*
X121076088Y-76797876D01*
X120980115Y-76645137D01*
X120852562Y-76517584D01*
X120699823Y-76421611D01*
X120529554Y-76362031D01*
X120529549Y-76362030D01*
X120350304Y-76341835D01*
X120350296Y-76341835D01*
X120171050Y-76362030D01*
X120171045Y-76362031D01*
X120000776Y-76421611D01*
X119848036Y-76517585D01*
X119845203Y-76519845D01*
X119843024Y-76520734D01*
X119842142Y-76521289D01*
X119842044Y-76521134D01*
X119780517Y-76546255D01*
X119767888Y-76546900D01*
X119599802Y-76546900D01*
X119532763Y-76527215D01*
X119487008Y-76474411D01*
X119477064Y-76405253D01*
X119480027Y-76390807D01*
X119487737Y-76362032D01*
X119535063Y-76185408D01*
X119555659Y-75950000D01*
X119535063Y-75714592D01*
X119473903Y-75486337D01*
X119459338Y-75455104D01*
X119448847Y-75386028D01*
X119477367Y-75322244D01*
X119535843Y-75284004D01*
X119571721Y-75278700D01*
X122644531Y-75278700D01*
X122644547Y-75278701D01*
X122652143Y-75278701D01*
X122810254Y-75278701D01*
X122810257Y-75278701D01*
X122962985Y-75237777D01*
X123043284Y-75191416D01*
X123043295Y-75191410D01*
X123099909Y-75158724D01*
X123099908Y-75158724D01*
X123099916Y-75158720D01*
X123211720Y-75046916D01*
X123211720Y-75046914D01*
X123221924Y-75036711D01*
X123221928Y-75036706D01*
X123425435Y-74833198D01*
X123486756Y-74799715D01*
X123499211Y-74797663D01*
X123586155Y-74787868D01*
X123756422Y-74728289D01*
X123909162Y-74632316D01*
X124036716Y-74504762D01*
X124132689Y-74352022D01*
X124192268Y-74181755D01*
X124195875Y-74149745D01*
X124212465Y-74002503D01*
X124212465Y-74002496D01*
X124192269Y-73823250D01*
X124192268Y-73823245D01*
X124132688Y-73652976D01*
X124093482Y-73590580D01*
X124036716Y-73500238D01*
X123909162Y-73372684D01*
X123889284Y-73360194D01*
X123756423Y-73276711D01*
X123586154Y-73217131D01*
X123586149Y-73217130D01*
X123406904Y-73196935D01*
X123406896Y-73196935D01*
X123227650Y-73217130D01*
X123227645Y-73217131D01*
X123057376Y-73276711D01*
X122904637Y-73372684D01*
X122777084Y-73500237D01*
X122681110Y-73652978D01*
X122621530Y-73823250D01*
X122611737Y-73910167D01*
X122584670Y-73974581D01*
X122576200Y-73983963D01*
X122518785Y-74041380D01*
X122457462Y-74074866D01*
X122431102Y-74077700D01*
X119573400Y-74077700D01*
X119506361Y-74058015D01*
X119460606Y-74005211D01*
X119450662Y-73936053D01*
X119461018Y-73901296D01*
X119473900Y-73873669D01*
X119473903Y-73873663D01*
X119535063Y-73645408D01*
X119555659Y-73410000D01*
X119535063Y-73174592D01*
X119473903Y-72946337D01*
X119374035Y-72732171D01*
X119238495Y-72538599D01*
X119238494Y-72538597D01*
X119071402Y-72371506D01*
X119071395Y-72371501D01*
X118877834Y-72235967D01*
X118877830Y-72235965D01*
X118877828Y-72235964D01*
X118663663Y-72136097D01*
X118663659Y-72136096D01*
X118663655Y-72136094D01*
X118435413Y-72074938D01*
X118435403Y-72074936D01*
X118200001Y-72054341D01*
X118199999Y-72054341D01*
X117964596Y-72074936D01*
X117964586Y-72074938D01*
X117736344Y-72136094D01*
X117736335Y-72136098D01*
X117522171Y-72235964D01*
X117522169Y-72235965D01*
X117328600Y-72371503D01*
X117206673Y-72493430D01*
X117145350Y-72526914D01*
X117075658Y-72521930D01*
X117019725Y-72480058D01*
X117002810Y-72449081D01*
X116953797Y-72317671D01*
X116953793Y-72317664D01*
X116867547Y-72202455D01*
X116867544Y-72202452D01*
X116752335Y-72116206D01*
X116752328Y-72116202D01*
X116617482Y-72065908D01*
X116617483Y-72065908D01*
X116557883Y-72059501D01*
X116557881Y-72059500D01*
X116557873Y-72059500D01*
X116557864Y-72059500D01*
X114762129Y-72059500D01*
X114762123Y-72059501D01*
X114702516Y-72065908D01*
X114567671Y-72116202D01*
X114567664Y-72116206D01*
X114452455Y-72202452D01*
X114452452Y-72202455D01*
X114366206Y-72317664D01*
X114366202Y-72317671D01*
X114315908Y-72452517D01*
X114309501Y-72512116D01*
X114309500Y-72512135D01*
X114309500Y-74307870D01*
X114309501Y-74307876D01*
X114315908Y-74367483D01*
X114366202Y-74502328D01*
X114366204Y-74502331D01*
X114393313Y-74538544D01*
X114417730Y-74604008D01*
X114402878Y-74672281D01*
X114381727Y-74700536D01*
X114139586Y-74942678D01*
X114027781Y-75054482D01*
X114027779Y-75054485D01*
X113977661Y-75141294D01*
X113977659Y-75141296D01*
X113948725Y-75191409D01*
X113948724Y-75191410D01*
X113948722Y-75191417D01*
X113907799Y-75344143D01*
X113907799Y-75344145D01*
X113907799Y-75512246D01*
X113907800Y-75512259D01*
X113907800Y-86547930D01*
X113907799Y-86547948D01*
X113907799Y-86713654D01*
X113907798Y-86713654D01*
X113408602Y-86713654D01*
X113448936Y-70634189D01*
X113468789Y-70567199D01*
X113521708Y-70521577D01*
X113572936Y-70510500D01*
X116988058Y-70510500D01*
X116988794Y-70510502D01*
X116989405Y-70510505D01*
X117052918Y-70510883D01*
X117052919Y-70510882D01*
X117052981Y-70510883D01*
X117053962Y-70510754D01*
X117054717Y-70510656D01*
X117055830Y-70510516D01*
X117055890Y-70510500D01*
X117055892Y-70510500D01*
X117117968Y-70493865D01*
X117118232Y-70493795D01*
X117180412Y-70477531D01*
X117180414Y-70477529D01*
X117180466Y-70477516D01*
X117181468Y-70477102D01*
X117182122Y-70476833D01*
X117183137Y-70476419D01*
X117183181Y-70476393D01*
X117183186Y-70476392D01*
X117238805Y-70444278D01*
X117239255Y-70444021D01*
X117294976Y-70412292D01*
X117295835Y-70411634D01*
X117296357Y-70411235D01*
X117297271Y-70410541D01*
X117297309Y-70410502D01*
X117297314Y-70410500D01*
X117342856Y-70364957D01*
X117388667Y-70319688D01*
X117388669Y-70319684D01*
X117388708Y-70319646D01*
X117389395Y-70318752D01*
X117389828Y-70318191D01*
X117390474Y-70317358D01*
X117390498Y-70317315D01*
X117390500Y-70317314D01*
X117422530Y-70261835D01*
X117422902Y-70261195D01*
X117429299Y-70250265D01*
X117455236Y-70205953D01*
X117455236Y-70205950D01*
X117455265Y-70205902D01*
X117455724Y-70204796D01*
X117455986Y-70204169D01*
X117456380Y-70203232D01*
X117472962Y-70141343D01*
X117473092Y-70140858D01*
X117490100Y-70078864D01*
X117490100Y-70078858D01*
X117490112Y-70078815D01*
X117490253Y-70077751D01*
X117490345Y-70077070D01*
X117490500Y-70075942D01*
X117490500Y-70011930D01*
X117490502Y-70011193D01*
X117515935Y-65729923D01*
X117516776Y-65588265D01*
X117536859Y-65521346D01*
X117589933Y-65475906D01*
X117641666Y-65465007D01*
X137136792Y-65606005D01*
G37*
%TD.AperFunction*%
%TD*%
M02*
