%TF.GenerationSoftware,KiCad,Pcbnew,8.0.0*%
%TF.CreationDate,2024-04-03T23:18:40+02:00*%
%TF.ProjectId,PowerSubsystem,506f7765-7253-4756-9273-797374656d2e,rev?*%
%TF.SameCoordinates,Original*%
%TF.FileFunction,Paste,Top*%
%TF.FilePolarity,Positive*%
%FSLAX46Y46*%
G04 Gerber Fmt 4.6, Leading zero omitted, Abs format (unit mm)*
G04 Created by KiCad (PCBNEW 8.0.0) date 2024-04-03 23:18:40*
%MOMM*%
%LPD*%
G01*
G04 APERTURE LIST*
%ADD10C,0.000000*%
%ADD11R,0.990600X0.762000*%
%ADD12R,0.900000X0.950000*%
%ADD13R,0.750000X0.600000*%
%ADD14R,0.482600X1.117600*%
%ADD15R,0.605600X0.500000*%
%ADD16R,1.475000X0.450000*%
%ADD17R,0.610000X0.630000*%
%ADD18R,1.460500X0.558800*%
%ADD19R,0.620000X0.640000*%
%ADD20R,0.600000X0.620000*%
G04 APERTURE END LIST*
D10*
%TO.C,U1*%
G36*
X125563200Y-90655000D02*
G01*
X123248600Y-90655000D01*
X123248600Y-89153200D01*
X125563200Y-89153200D01*
X125563200Y-90655000D01*
G37*
G36*
X125563200Y-92356800D02*
G01*
X123248600Y-92356800D01*
X123248600Y-90855000D01*
X125563200Y-90855000D01*
X125563200Y-92356800D01*
G37*
%TD*%
D11*
%TO.C,SW1*%
X121106398Y-67698300D03*
X127106402Y-67698300D03*
X121106398Y-71448300D03*
X127106402Y-71448300D03*
%TD*%
D12*
%TO.C,R1*%
X134310000Y-80680000D03*
X135910000Y-80680000D03*
%TD*%
D13*
%TO.C,R7*%
X130345000Y-86880000D03*
X131445000Y-86880000D03*
%TD*%
%TO.C,R6*%
X130835000Y-84780000D03*
X131935000Y-84780000D03*
%TD*%
D14*
%TO.C,U2*%
X129339999Y-94957600D03*
X131240001Y-94957600D03*
X130290000Y-92570000D03*
%TD*%
D13*
%TO.C,R5*%
X130835000Y-82630000D03*
X131935000Y-82630000D03*
%TD*%
%TO.C,R4*%
X130835000Y-80480000D03*
X131935000Y-80480000D03*
%TD*%
D12*
%TO.C,R3*%
X134310000Y-85780000D03*
X135910000Y-85780000D03*
%TD*%
D15*
%TO.C,C1*%
X134624400Y-88469200D03*
X135730000Y-88469200D03*
%TD*%
D16*
%TO.C,IC1*%
X121550000Y-82350000D03*
X121550000Y-83000000D03*
X121550000Y-83650000D03*
X121550000Y-84300000D03*
X121550000Y-84950000D03*
X121550000Y-85600000D03*
X121550000Y-86250000D03*
X121550000Y-86900000D03*
X127426000Y-86900000D03*
X127426000Y-86250000D03*
X127426000Y-85600000D03*
X127426000Y-84950000D03*
X127426000Y-84300000D03*
X127426000Y-83650000D03*
X127426000Y-83000000D03*
X127426000Y-82350000D03*
%TD*%
D12*
%TO.C,R2*%
X134310000Y-83230000D03*
X135910000Y-83230000D03*
%TD*%
D15*
%TO.C,C6*%
X134624400Y-92790000D03*
X135730000Y-92790000D03*
%TD*%
D17*
%TO.C,C3*%
X131945000Y-88500000D03*
X132865000Y-88500000D03*
%TD*%
D18*
%TO.C,U1*%
X121681750Y-88850000D03*
X121681750Y-90120000D03*
X121681750Y-91390000D03*
X121681750Y-92660000D03*
X127130050Y-92660000D03*
X127130050Y-91390000D03*
X127130050Y-90120000D03*
X127130050Y-88850000D03*
%TD*%
D15*
%TO.C,C2*%
X134624400Y-90629600D03*
X135730000Y-90629600D03*
%TD*%
D19*
%TO.C,C4*%
X129060000Y-88500000D03*
X129980000Y-88500000D03*
%TD*%
%TO.C,C5*%
X129060000Y-90490000D03*
X129980000Y-90490000D03*
%TD*%
D20*
%TO.C,C7*%
X131940000Y-90480000D03*
X132860000Y-90480000D03*
%TD*%
M02*
