%TF.GenerationSoftware,KiCad,Pcbnew,8.0.0*%
%TF.CreationDate,2024-04-03T23:18:40+02:00*%
%TF.ProjectId,PowerSubsystem,506f7765-7253-4756-9273-797374656d2e,rev?*%
%TF.SameCoordinates,Original*%
%TF.FileFunction,Soldermask,Top*%
%TF.FilePolarity,Negative*%
%FSLAX46Y46*%
G04 Gerber Fmt 4.6, Leading zero omitted, Abs format (unit mm)*
G04 Created by KiCad (PCBNEW 8.0.0) date 2024-04-03 23:18:40*
%MOMM*%
%LPD*%
G01*
G04 APERTURE LIST*
G04 Aperture macros list*
%AMRoundRect*
0 Rectangle with rounded corners*
0 $1 Rounding radius*
0 $2 $3 $4 $5 $6 $7 $8 $9 X,Y pos of 4 corners*
0 Add a 4 corners polygon primitive as box body*
4,1,4,$2,$3,$4,$5,$6,$7,$8,$9,$2,$3,0*
0 Add four circle primitives for the rounded corners*
1,1,$1+$1,$2,$3*
1,1,$1+$1,$4,$5*
1,1,$1+$1,$6,$7*
1,1,$1+$1,$8,$9*
0 Add four rect primitives between the rounded corners*
20,1,$1+$1,$2,$3,$4,$5,0*
20,1,$1+$1,$4,$5,$6,$7,0*
20,1,$1+$1,$6,$7,$8,$9,0*
20,1,$1+$1,$8,$9,$2,$3,0*%
G04 Aperture macros list end*
%ADD10R,0.990600X0.762000*%
%ADD11R,1.000000X1.000000*%
%ADD12R,0.900000X0.950000*%
%ADD13RoundRect,0.250000X-0.350000X-0.625000X0.350000X-0.625000X0.350000X0.625000X-0.350000X0.625000X0*%
%ADD14O,1.200000X1.750000*%
%ADD15R,0.750000X0.600000*%
%ADD16R,0.482600X1.117600*%
%ADD17R,0.605600X0.500000*%
%ADD18R,1.475000X0.450000*%
%ADD19R,1.700000X1.700000*%
%ADD20O,1.700000X1.700000*%
%ADD21R,0.610000X0.630000*%
%ADD22R,1.460500X0.558800*%
%ADD23R,2.514600X3.403600*%
%ADD24R,0.620000X0.640000*%
%ADD25R,0.600000X0.620000*%
%ADD26C,0.600000*%
G04 APERTURE END LIST*
D10*
%TO.C,SW1*%
X121106398Y-67698300D03*
X127106402Y-67698300D03*
X121106398Y-71448300D03*
X127106402Y-71448300D03*
%TD*%
D11*
%TO.C,TP_3V3*%
X127460000Y-77070000D03*
%TD*%
D12*
%TO.C,R1*%
X134310000Y-80680000D03*
X135910000Y-80680000D03*
%TD*%
D13*
%TO.C,J2*%
X131760000Y-74380000D03*
D14*
X133760000Y-74380000D03*
%TD*%
D11*
%TO.C,TP1_motor2B1*%
X124410000Y-74020000D03*
%TD*%
D15*
%TO.C,R7*%
X130345000Y-86880000D03*
X131445000Y-86880000D03*
%TD*%
D11*
%TO.C,TP1_motor2A1*%
X121360000Y-80120000D03*
%TD*%
D15*
%TO.C,R6*%
X130835000Y-84780000D03*
X131935000Y-84780000D03*
%TD*%
D16*
%TO.C,U2*%
X129339999Y-94957600D03*
X131240001Y-94957600D03*
X130290000Y-92570000D03*
%TD*%
D11*
%TO.C,TP1_3.3v1*%
X121360000Y-74020000D03*
%TD*%
%TO.C,TP2_+BATT1*%
X124410000Y-77070000D03*
%TD*%
%TO.C,TP1_motor1B1*%
X121360000Y-77070000D03*
%TD*%
%TO.C,TP7_5V_1*%
X127460000Y-74020000D03*
%TD*%
%TO.C,TP_5V_2*%
X127460000Y-80120000D03*
%TD*%
D15*
%TO.C,R5*%
X130835000Y-82630000D03*
X131935000Y-82630000D03*
%TD*%
%TO.C,R4*%
X130835000Y-80480000D03*
X131935000Y-80480000D03*
%TD*%
D12*
%TO.C,R3*%
X134310000Y-85780000D03*
X135910000Y-85780000D03*
%TD*%
D17*
%TO.C,C1*%
X134624400Y-88469200D03*
X135730000Y-88469200D03*
%TD*%
D18*
%TO.C,IC1*%
X121550000Y-82350000D03*
X121550000Y-83000000D03*
X121550000Y-83650000D03*
X121550000Y-84300000D03*
X121550000Y-84950000D03*
X121550000Y-85600000D03*
X121550000Y-86250000D03*
X121550000Y-86900000D03*
X127426000Y-86900000D03*
X127426000Y-86250000D03*
X127426000Y-85600000D03*
X127426000Y-84950000D03*
X127426000Y-84300000D03*
X127426000Y-83650000D03*
X127426000Y-83000000D03*
X127426000Y-82350000D03*
%TD*%
D12*
%TO.C,R2*%
X134310000Y-83230000D03*
X135910000Y-83230000D03*
%TD*%
D17*
%TO.C,C6*%
X134624400Y-92790000D03*
X135730000Y-92790000D03*
%TD*%
D19*
%TO.C,J1*%
X115660000Y-73410000D03*
D20*
X118200000Y-73410000D03*
X115660000Y-75950000D03*
X118200000Y-75950000D03*
X115660000Y-78490000D03*
X118200000Y-78490000D03*
X115660000Y-81030000D03*
X118200000Y-81030000D03*
X115660000Y-83570000D03*
X118200000Y-83570000D03*
X115660000Y-86110000D03*
X118200000Y-86110000D03*
X115660000Y-88650000D03*
X118200000Y-88650000D03*
X115660000Y-91190000D03*
X118200000Y-91190000D03*
%TD*%
D21*
%TO.C,C3*%
X131945000Y-88500000D03*
X132865000Y-88500000D03*
%TD*%
D22*
%TO.C,U1*%
X121681750Y-88850000D03*
X121681750Y-90120000D03*
X121681750Y-91390000D03*
X121681750Y-92660000D03*
X127130050Y-92660000D03*
X127130050Y-91390000D03*
X127130050Y-90120000D03*
X127130050Y-88850000D03*
D23*
X124405900Y-90755000D03*
%TD*%
D17*
%TO.C,C2*%
X134624400Y-90629600D03*
X135730000Y-90629600D03*
%TD*%
D24*
%TO.C,C4*%
X129060000Y-88500000D03*
X129980000Y-88500000D03*
%TD*%
D11*
%TO.C,TP6_+BATT1*%
X124410000Y-80120000D03*
%TD*%
D24*
%TO.C,C5*%
X129060000Y-90490000D03*
X129980000Y-90490000D03*
%TD*%
D25*
%TO.C,C7*%
X131940000Y-90480000D03*
X132860000Y-90480000D03*
%TD*%
D26*
X124624000Y-86892500D03*
X130812800Y-90128500D03*
X124410000Y-78334000D03*
X131760400Y-91294900D03*
X128837600Y-85227600D03*
X124480200Y-88104100D03*
X120350300Y-77147400D03*
X123406900Y-74002500D03*
X127438200Y-79109500D03*
X128424600Y-89288000D03*
X129669500Y-83164600D03*
X128395600Y-91393300D03*
X130131200Y-84076200D03*
X129792100Y-89641000D03*
X127292700Y-81596300D03*
X124730200Y-81219400D03*
X128261700Y-79183100D03*
X132991700Y-87655800D03*
X128563000Y-92569100D03*
M02*
