M48
; DRILL file {KiCad 8.0.0} date 2024-04-03T23:18:41+0200
; FORMAT={-:-/ absolute / inch / decimal}
; #@! TF.CreationDate,2024-04-03T23:18:41+02:00
; #@! TF.GenerationSoftware,Kicad,Pcbnew,8.0.0
; #@! TF.FileFunction,Plated,1,2,PTH
FMAT,2
INCH
; #@! TA.AperFunction,Plated,PTH,ViaDrill
T1C0.0118
; #@! TA.AperFunction,Plated,PTH,ComponentDrill
T2C0.0295
; #@! TA.AperFunction,Plated,PTH,ComponentDrill
T3C0.0394
%
G90
G05
T1
X4.7382Y-3.0373
X4.8585Y-2.9135
X4.898Y-3.084
X4.9008Y-3.4687
X4.9065Y-3.421
X4.9106Y-3.1976
X5.0115Y-3.2125
X5.0173Y-3.1145
X5.0497Y-3.1174
X5.0549Y-3.5982
X5.0561Y-3.5153
X5.0615Y-3.6445
X5.0723Y-3.3554
X5.1051Y-3.2742
X5.1099Y-3.5292
X5.1233Y-3.3101
X5.1501Y-3.5484
X5.1874Y-3.5943
X5.2359Y-3.451
T2
X5.1874Y-2.9283
X5.2661Y-2.9283
T3
X4.5535Y-2.8902
X4.5535Y-2.9902
X4.5535Y-3.0902
X4.5535Y-3.1902
X4.5535Y-3.2902
X4.5535Y-3.3902
X4.5535Y-3.4902
X4.5535Y-3.5902
X4.6535Y-2.8902
X4.6535Y-2.9902
X4.6535Y-3.0902
X4.6535Y-3.1902
X4.6535Y-3.2902
X4.6535Y-3.3902
X4.6535Y-3.4902
X4.6535Y-3.5902
M30
